<svg xmlns="http://www.w3.org/2000/svg" viewBox="0 0 1108 1083" width="1108" height="1083">
<g transform="translate(554.0 541.5) scale(1.06) translate(-554.0 -541.5)"><path d="M843.5 191.92C864.26 184.34 886.94 192.76 889.55 216.77C890.36 224.18 887.68 229.65 885.92 236.5C891.26 243.5 897.1 250.1 902.39 257.15C918.51 278.61 932.86 301.65 944.81 325.69C998.85 434.42 1008.38 563.75 965.39 677.82C953.19 710.18 936.7 741.84 916.43 769.9C910.3 778.39 904.02 786.76 897.42 794.9C893.42 799.83 888.67 804.33 885.01 809.5C887.51 815.57 889.93 820.73 889.79 827.5C889.48 842.85 876.96 856.75 861.5 857.98C853.06 858.65 846.99 855.79 839.5 852.63C826.44 862.77 813.68 873.21 799.91 882.41C778.54 896.68 755.55 909.35 731.91 919.43C626.29 964.49 503.92 968.99 395.68 929.76C364.31 918.39 334.12 903.63 306.15 885.38C296.54 879.11 287.2 872.42 278.08 865.45C273.22 861.74 268.7 857.16 263.5 854C256.43 856.86 250.32 858.8 242.5 857.86C224.81 855.73 213.46 838.57 215.91 821.5C216.42 817.96 217.87 814.8 219.13 811.5C215.41 806.34 210.76 801.7 206.62 796.86C200.63 789.85 194.9 782.41 189.61 774.87C167.3 743.08 148.18 708.91 135.43 672.1C125.49 643.4 117.99 613.66 114.26 583.47C99.14 460.89 136.65 329.45 218.94 236.5C217.3 228.43 214.6 223.23 216 214.5C218.49 198.87 233.05 188.11 248.5 188.69C253.5 188.88 257.83 190.45 262.5 192.04C271.31 185.18 279.6 177.7 288.61 171.07C310.25 155.13 333.4 140.84 357.59 129.1C465.62 76.67 589.52 68.11 702.97 108.51C736.9 120.6 769.2 137.33 798.99 157.51C808.65 164.06 818.06 171.03 827.09 178.42C832.42 182.78 837.48 188.64 843.5 191.92ZM831.28 203.5C823.32 194.55 812.64 187.61 803.17 180.36C777.76 160.9 749.37 145.01 719.95 132.54C603.46 83.18 471.37 88.96 358.86 146.39C338.93 156.57 319.92 168.21 301.79 181.32C292.41 188.11 282.17 195.1 274.17 203.5C276.32 208.44 278.54 212.97 278.77 218.5C279.43 234.78 267.76 249.57 251.38 251.66C243.65 252.64 237.65 250.08 230.5 248.03C203.32 277.71 182.44 312.89 165.92 349.43C124.93 440.09 116.46 543.25 142.32 639.29C146.88 656.21 153.21 672.48 159.8 688.69C170.91 715.99 186.19 740.57 202.55 764.94C210.24 776.4 220.13 790.36 230.5 799.44C235.49 797.55 240.17 795.64 245.6 795.45C261.57 794.87 276.7 806.31 278.62 822.64C279.49 829.99 277.13 835.74 275.03 842.5C282.73 849.5 291.42 855.53 299.81 861.65C332.64 885.61 369.91 904.25 408.42 917.12C524.02 955.73 652.99 946.35 760.17 887.64C783.91 874.64 808.98 858.88 828.94 840.5C828.34 834.37 826.36 828.87 827.17 822.51C829.12 807.08 842.13 796.31 857.29 795.53C862.99 795.23 868.04 797.26 873.5 798.25C891.74 778.7 907.15 756.14 920.59 733.1C991.64 611.32 993.02 467.28 934.14 340.37C918.82 307.34 898.7 275.19 874.5 247.89C868 249.88 862.6 252.33 855.5 251.75C840.17 250.51 827.88 237.75 826.97 222.5C826.56 215.44 828.76 209.87 831.28 203.5ZM535.8 133.47C582.68 130.42 633.25 137.5 677.66 152.79C721.07 167.73 760.53 189.33 796.37 218.09C811.66 230.35 825.49 244.36 838.63 258.85C923.57 352.57 960.54 487.93 930.81 611.44C914.95 677.3 883.44 734.57 838.27 784.75C808.52 817.8 770.48 845.6 730.63 865.16C682.68 888.69 630.93 902.96 577.5 905.92C521.49 909.02 463.87 901.4 411.43 881.12C360.83 861.55 317.63 834.54 278.03 797.48C182.36 707.93 144.26 573.16 169.35 445.71C184.55 368.54 224.91 296.3 280.92 241.43C330.41 192.97 398.53 155.85 466.56 142.24C489.57 137.63 512.38 135 535.8 133.47ZM533.69 148.46C488.58 150.87 443.45 160.52 401.88 178.42C289.23 226.95 208.88 328.79 184.22 448.56C174.99 493.39 174.65 539.41 181.75 584.54C188.01 624.31 201.42 664.18 221.26 699.28C241.74 735.52 267.08 769.42 298.82 796.67C334.06 826.92 373.39 851.5 417.19 867.37C466.75 885.33 519.51 894.04 572.29 891.53C623.81 889.08 673.94 876.07 720.44 853.93C762.03 834.13 800.59 805.13 831.14 770.67C862.94 734.8 889.46 692.98 904.69 647.28C921.39 597.17 929.08 545.33 924.75 492.5C912.45 342.46 809.99 208.83 665.26 164.33C622.88 151.3 577.96 146.09 533.69 148.46Z" fill="#f4f9fb" fill-rule="evenodd" stroke="#191A7E" stroke-width="0.25" stroke-linejoin="round"/></g>
<g transform="translate(554.0 541.5) scale(0.72) translate(-554.0 -541.5)"><path d="M554.5 67.24C570.83 96.38 587.17 125.52 603.5 154.67C606.62 153.51 608.37 150.66 610.62 148.14C614.56 143.75 618.82 139.64 622.83 135.32C633.26 124.1 644.06 113.21 654.95 102.43C660.54 96.91 666.08 90.54 672.5 86.02C681.5 119.25 690.5 152.47 699.5 185.7C707.35 183.69 718.2 176.24 725.76 172.27C741.35 164.08 757.16 155.97 773.16 148.62C779.87 145.54 787.21 140.44 794.5 139.42C793.84 161.08 791.95 182.81 790.58 204.44C790.02 213.39 787.73 229.87 789.5 238.04C796.7 236.74 803.6 234.07 810.69 232.3C828.29 227.92 845.75 223.01 863.38 218.71C871.07 216.84 884.97 211.7 892.2 212.5C881.34 246.17 870.48 279.83 859.62 313.5C893.84 314.83 928.06 316.17 962.28 317.5C943.19 345.83 924.1 374.17 905.02 402.5C909.12 405.99 927.88 410.49 934.2 412.38C950.79 417.34 967.31 423.07 983.65 428.8C989.93 431 996.71 432.41 1002.63 435.5C976.74 457.83 950.86 480.17 924.97 502.5C951.74 519.5 978.51 536.5 1005.28 553.5C977.49 568.83 949.7 584.17 921.91 599.5C945.83 623.83 969.76 648.17 993.68 672.5C961.64 680.5 929.6 688.5 897.56 696.5C913.38 725.5 929.2 754.5 945.02 783.5C910.22 782.5 875.43 781.5 840.63 780.5C847.9 813.5 855.16 846.5 862.42 879.5C855.36 879.62 837.84 871.99 830.27 869.3C808.13 861.42 785.66 854.44 763.5 846.61C761.86 849.52 762.06 853.06 761.77 856.5C761.17 863.5 760.5 870.49 759.99 877.5C758.98 891.51 757.28 905.48 756.31 919.5C755.66 929.04 755.91 939.09 754.32 948.5C749.01 947.44 739.27 939.57 734.22 936.32C718.02 925.87 701.9 915.26 685.75 904.74C680.11 901.07 670.78 893.1 664.5 892.24C649.83 924.64 635.17 957.05 620.5 989.45C597.83 962.44 575.17 935.42 552.5 908.4C547.58 911.09 539.6 923.04 535.42 927.91C524.18 941.03 513.06 954.25 502.27 967.75C497.11 974.2 491.41 984.09 485.5 989.31C469.83 957.22 454.17 925.14 438.5 893.05C410.17 911.85 381.83 930.65 353.5 949.46C350.55 944.3 350.37 929.63 349.5 922.97C347.16 904.88 345.67 886.65 344 868.5C343.36 861.56 343.47 854.33 342.27 847.5C334.77 847.69 326.57 852.49 319.41 854.83C301.41 860.71 283.6 867.2 265.64 873.21C259.17 875.38 251.4 879.73 244.65 879.5C251.6 845.89 258.55 812.27 265.5 778.66C243.26 779.5 220.95 781.08 198.74 782.47C188.96 783.08 171.89 785.35 162.84 783.5C179.24 754.5 195.65 725.5 212.05 696.5C206.08 692.97 197.3 692.67 190.54 690.91C173.2 686.38 155.65 682.65 138.25 678.37C132.59 676.97 117.54 674.63 113.9 671.5C137.68 647.5 161.46 623.5 185.25 599.5C180.34 594.26 167.01 588.07 160.22 584.3C148.42 577.74 136.62 571.17 124.72 564.76C117.38 560.81 109.7 557.5 102.4 553.5C129.1 536.21 155.8 518.91 182.5 501.62C156.83 479.55 131.17 457.48 105.5 435.41C137.75 424.44 170 413.47 202.24 402.5C183.3 374.17 164.36 345.83 145.42 317.5C179.52 316.17 213.61 314.83 247.7 313.5C236.98 279.83 226.27 246.17 215.55 212.5C223.34 211.77 232.86 215.88 240.54 217.85C259.15 222.61 277.72 227.5 296.32 232.29C302.78 233.96 311.23 237.87 317.51 237.5C317.51 204.72 317.51 171.94 317.51 139.16C327.23 142.28 336.57 148.21 345.72 152.77C366.48 163.12 387.05 173.71 407.5 184.66C409.71 182.34 409.92 178.56 410.78 175.42C412.59 168.79 414.41 162.19 416.14 155.54C419.65 142.04 423.97 128.76 427.73 115.34C430.42 105.71 432.41 95.35 436.5 86.21C458.83 108.43 481.17 130.66 503.5 152.88C515.59 132.36 527.5 111.71 539.79 91.29C542.78 86.32 551.01 69.66 554.5 67.24ZM511.1 160.5C514.9 165.03 518.7 169.56 522.5 174.08C532.83 157.54 543.17 140.99 553.5 124.45C564.17 141.44 574.83 158.44 585.5 175.44C589.07 171.46 592.63 167.48 596.2 163.5C593.84 154.18 582.37 138.29 577.01 129.44C572.09 121.31 567.35 113.06 562.65 104.8C559.67 99.56 557.31 93.67 553.5 88.99C539.37 112.83 525.23 136.66 511.1 160.5ZM441.5 105.75C433.61 133.67 425.72 161.58 417.83 189.5C422.39 192.41 426.94 195.32 431.5 198.22C437.83 178.34 444.17 158.45 450.5 138.56C463.83 151.31 477.17 164.05 490.5 176.8C493.04 172.03 495.58 167.27 498.11 162.5C490.83 152.18 480.14 143.23 471.17 134.33C462.3 125.54 451.41 112.76 441.5 105.75ZM666.5 105.86C647.39 125.41 628.28 144.95 609.18 164.5C611.62 169.21 614.06 173.93 616.5 178.64C630.5 165.35 644.5 152.06 658.5 138.76C664.83 158.75 671.17 178.73 677.5 198.72C681.55 196.31 685.6 193.91 689.65 191.5C689.57 184.88 686.76 177.91 685.13 171.46C681.73 158.05 677.8 144.78 674.18 131.43C672.49 125.19 669.95 110.33 666.5 105.86ZM553.5 143.63C545.59 156.59 537.68 169.54 529.77 182.5C538.01 192.92 546.26 203.35 554.5 213.77C562.57 203.68 570.65 193.59 578.72 183.5C570.32 170.21 561.91 156.92 553.5 143.63ZM327.5 156.2C328.17 184.6 328.83 213 329.5 241.4C334.75 243.05 340 244.71 345.26 246.36C345.26 225.88 345.26 205.4 345.26 184.92C364 194.02 382.75 203.11 401.5 212.21C402.9 206.64 404.31 201.07 405.71 195.5C401.48 192.33 396.38 190.29 391.76 187.73C379.65 181.01 367.13 174.94 354.74 168.76C347.22 165.01 335.35 157.61 327.5 156.2ZM782.5 156.03C764.87 162.58 748.07 172.29 731.37 180.88C721.83 185.78 710.72 189.98 702.2 196.5C703.63 202.19 705.07 207.87 706.5 213.56C725.44 203.95 744.38 194.35 763.31 184.74C763.31 205.23 763.31 225.73 763.31 246.22C768.23 244.65 773.15 243.07 778.06 241.5C779.54 213.01 781.02 184.52 782.5 156.03ZM454.5 156.72C449.79 172.31 445.07 187.91 440.36 203.5C450.07 210.41 459.79 217.33 469.5 224.24C474.93 211.33 480.36 198.41 485.79 185.5C475.36 175.91 464.93 166.31 454.5 156.72ZM654.5 157.04C643.57 167.19 632.64 177.35 621.71 187.5C627.3 200.06 632.9 212.63 638.5 225.19C648.39 217.96 658.29 210.73 668.18 203.5C663.62 188.01 659.06 172.53 654.5 157.04ZM505.5 170.68C503.21 175.29 500.93 179.89 498.64 184.5C502.59 188.52 506.55 192.55 510.5 196.57C512.75 192.21 515.01 187.86 517.26 183.5C513.34 179.23 509.42 174.96 505.5 170.68ZM601.5 173.02C598.07 176.85 594.64 180.67 591.22 184.5C593.64 188.79 596.07 193.07 598.5 197.36C601.97 193.74 605.43 190.12 608.9 186.5C606.43 182.01 603.97 177.51 601.5 173.02ZM524.5 192.27C522.1 196.01 519.7 199.76 517.3 203.5C525.04 213.07 532.77 222.63 540.5 232.2C542.92 228.97 545.35 225.73 547.77 222.5C540.01 212.42 532.26 202.35 524.5 192.27ZM584.5 192.93C576.59 202.78 568.68 212.64 560.77 222.5C563.26 225.83 565.75 229.17 568.23 232.5C575.86 223.5 583.48 214.5 591.1 205.5C588.9 201.31 586.7 197.12 584.5 192.93ZM493.5 193.93C488.3 206.46 483.11 218.98 477.91 231.5C481.44 234.45 484.97 237.4 488.5 240.36C494.06 228.74 499.63 217.12 505.19 205.5C502.38 201.54 497.86 195.88 493.5 193.93ZM613.5 195.92C610.04 199.44 606.58 202.97 603.12 206.5C608.58 217.99 614.04 229.49 619.5 240.98C622.85 238.15 626.2 235.33 629.55 232.5C628.93 227.57 626.19 222.88 624.19 218.32C620.96 210.96 618.08 202.51 613.5 195.92ZM354.91 200.45C354.91 216.8 354.91 233.15 354.91 249.5C367.44 254.35 379.97 259.21 392.5 264.06C394.83 250.3 397.17 236.53 399.5 222.76C384.64 215.33 369.77 207.89 354.91 200.45ZM415.5 200.86C414.02 206.41 412.54 211.95 411.06 217.5C415.54 220.23 420.02 222.95 424.5 225.68C425.83 219.98 427.17 214.29 428.5 208.59C424.17 206.01 419.83 203.43 415.5 200.86ZM753.43 201.11C738.45 208.71 723.48 216.31 708.5 223.91C708.41 233.21 711.8 243.21 713.09 252.5C713.66 256.58 713.32 261.72 715.5 265.09C728.14 259.9 740.79 254.7 753.43 249.5C753.43 233.37 753.43 217.24 753.43 201.11ZM692.5 201.93C688.32 204.45 684.14 206.98 679.96 209.5C681.47 215.13 682.99 220.77 684.5 226.4C688.5 223.98 692.5 221.57 696.5 219.15C695.17 213.41 693.83 207.67 692.5 201.93ZM512.5 213.11C506.97 224.58 501.44 236.04 495.91 247.5C503.11 254.87 510.3 262.24 517.5 269.61C523.43 259.91 529.35 250.2 535.28 240.5C527.69 231.37 520.09 222.24 512.5 213.11ZM437.5 214.57C436.11 220.22 434.72 225.86 433.33 231.5C442.05 237.64 450.78 243.78 459.5 249.92C461.44 244.78 463.37 239.64 465.31 234.5C459.13 227.92 445.7 218.31 437.5 214.57ZM596.5 214.94C592.76 216.95 590.28 220.79 587.56 224.07C582.81 229.8 577.58 235.35 573.4 241.5C578.77 251.14 584.13 260.78 589.5 270.42C596.88 263.11 604.26 255.81 611.64 248.5C606.59 237.31 601.55 226.12 596.5 214.94ZM671.5 215.16C667.42 215.94 664.11 218.79 660.74 221.25C654.6 225.75 647.18 229.75 642.14 235.5C644.26 240.65 646.38 245.8 648.5 250.95C657.35 244.8 666.21 238.65 675.06 232.5C673.87 226.72 672.69 220.94 671.5 215.16ZM231.5 227.03C240.77 255.93 250.03 284.84 259.3 313.74C264.57 313.74 269.84 313.74 275.12 313.74C269.4 293 263.68 272.25 257.96 251.5C278.48 256.32 298.99 261.14 319.51 265.96C319.51 260.47 319.51 254.99 319.51 249.5C290.17 242.01 260.84 234.52 231.5 227.03ZM876.5 227.22C868.97 227.01 854.12 231.6 846.28 233.67C826.73 238.84 807.2 244.1 787.71 249.43C787.71 255.18 787.71 260.94 787.71 266.69C808.64 261.61 829.57 256.54 850.5 251.46C844.64 272.25 838.78 293.05 832.92 313.85C838.15 313.85 843.38 313.85 848.61 313.85C857.91 284.97 867.2 256.1 876.5 227.22ZM409.5 228.23C405.39 236.95 403.54 258.26 402.23 268.5C406.32 270.64 410.41 272.79 414.5 274.93C416.93 261.79 419.36 248.64 421.79 235.5C417.69 233.08 413.6 230.65 409.5 228.23ZM698.5 229.58C694.5 232.08 690.5 234.58 686.5 237.09C688.83 249.74 691.17 262.4 693.5 275.06C697.29 273.2 701.07 271.35 704.86 269.5C702.74 256.19 700.62 242.89 698.5 229.58ZM554.5 231.21C552.08 234.31 549.67 237.4 547.25 240.5C549.67 243.9 552.08 247.29 554.5 250.69C556.79 247.62 559.08 244.56 561.38 241.5C559.08 238.07 556.79 234.64 554.5 231.21ZM473.5 241.43C471.73 246.12 469.96 250.81 468.18 255.5C471.62 258.29 475.06 261.08 478.5 263.86C480.37 259.41 482.24 254.95 484.11 250.5C480.57 247.48 477.04 244.46 473.5 241.43ZM430.5 242.05C428.23 254.53 425.96 267.02 423.69 279.5C431.63 284.11 439.56 288.72 447.5 293.33C450.52 282.05 453.53 270.78 456.55 259.5C451.28 254.91 436.71 243.55 430.5 242.05ZM633.5 241.93C630.27 244.78 627.05 247.64 623.82 250.5C624.43 255.18 626.43 261.36 629.5 264.97C632.77 262.15 636.04 259.32 639.32 256.5C637.38 251.64 635.44 246.78 633.5 241.93ZM677.5 242.52C668.83 248.41 660.17 254.31 651.5 260.2C654.5 271.44 657.5 282.68 660.5 293.92C668.18 289.45 675.86 284.97 683.55 280.5C684.73 273.94 682.53 266.05 681.2 259.45C680.06 253.8 679.64 247.89 677.5 242.52ZM541.5 249.16C536.24 254.17 527.42 270.47 525.05 277.5C526.86 279.89 528.68 282.29 530.5 284.68C536.35 275.95 542.19 267.23 548.04 258.5C545.86 255.39 543.68 252.28 541.5 249.16ZM566.5 250.16C564.3 253.27 562.1 256.39 559.9 259.5C565.43 268.11 570.97 276.71 576.5 285.32C578.55 283.04 580.59 280.77 582.64 278.5C579.96 272.03 571.45 254.11 566.5 250.16ZM345.5 257.5C340.29 255.83 335.07 254.17 329.86 252.5C329.86 258.17 329.86 263.83 329.86 269.5C335.07 270.88 340.29 272.26 345.5 273.63C345.5 268.26 345.5 262.88 345.5 257.5ZM777.35 252.48C772.36 254.16 767.36 255.83 762.36 257.5C762.36 263.18 762.36 268.86 762.36 274.55C767.36 272.99 772.36 271.44 777.35 269.88C777.35 264.08 777.35 258.28 777.35 252.48ZM491.5 257.73C489.87 261.99 488.25 266.24 486.62 270.5C493.91 276.94 501.21 283.38 508.5 289.83C510.03 286.38 511.56 282.94 513.09 279.5C505.89 272.24 498.7 264.99 491.5 257.73ZM615.5 258.03C608.38 265.52 601.27 273.01 594.15 280.5C595.6 284.02 597.05 287.54 598.5 291.06C605.99 284.54 613.48 278.02 620.96 271.5C620.5 267.01 618.59 261.33 615.5 258.03ZM355.08 260.89C355.08 266.31 355.08 271.73 355.08 277.15C366.55 281.42 378.03 285.69 389.5 289.96C390.19 285.14 390.88 280.32 391.58 275.5C379.41 270.63 367.24 265.76 355.08 260.89ZM752.79 260.91C740.74 265.78 728.7 270.64 716.65 275.5C716.65 280.63 716.65 285.76 716.65 290.9C728.7 286.43 740.74 281.97 752.79 277.5C752.79 271.97 752.79 266.44 752.79 260.91ZM320.5 277.02C312.19 273.2 302.37 272.26 293.54 269.92C286.73 268.11 278.81 264.99 271.83 265.5C276.38 281.58 280.94 297.66 285.5 313.75C298.61 315 311.72 316.25 324.83 317.5C323.39 304.01 321.94 290.51 320.5 277.02ZM836.33 265.5C830.73 265.07 824.85 267.34 819.37 268.74C808.47 271.51 797.41 273.97 786.72 277.5C785.12 290.83 783.51 304.17 781.91 317.5C795.21 316.5 808.51 315.5 821.82 314.5C826.65 298.17 831.49 281.83 836.33 265.5ZM465.5 265.83C461.93 271.46 456.87 292.51 456.29 299.5C459.02 301.3 461.76 303.1 464.5 304.9C468.12 294.43 471.73 283.97 475.35 273.5C472.07 270.94 468.78 268.39 465.5 265.83ZM642.5 266.47C639.17 269.06 635.83 271.66 632.5 274.25C635.83 284.82 639.17 295.39 642.5 305.95C645.41 303.8 648.31 301.65 651.22 299.5C649.51 289.82 647.03 275.05 642.5 266.47ZM553.5 267.51C547.99 275.84 542.47 284.17 536.96 292.5C542.47 301.05 547.99 309.61 553.5 318.16C559.2 309.94 564.9 301.72 570.59 293.5C567.82 287.14 558.67 271.47 553.5 267.51ZM331.5 280.03C332.83 292.95 334.17 305.86 335.5 318.77C339.83 319.49 344.17 320.2 348.5 320.92C347.63 308.78 346.76 296.64 345.89 284.5C341.1 283.01 336.3 281.52 331.5 280.03ZM400.37 279.88C400.37 284.76 400.37 289.63 400.37 294.5C404.41 296.03 408.45 297.57 412.48 299.1C412.48 294.57 412.48 290.03 412.48 285.5C408.45 283.63 404.41 281.76 400.37 279.88ZM483.5 279.72C479.32 284.98 473.56 304.42 472.28 311.5C479.69 317.61 487.09 323.73 494.5 329.84C498.03 319.4 501.56 308.95 505.09 298.5C497.9 292.24 490.7 285.98 483.5 279.72ZM624.5 280.29C616.98 286.69 609.46 293.1 601.94 299.5C605.46 310.24 608.98 320.97 612.5 331.71C619.85 325.31 627.19 318.9 634.54 312.5C631.19 301.76 627.85 291.03 624.5 280.29ZM705.95 280.5C702.13 282.5 698.32 284.49 694.5 286.49C695.17 290.96 695.83 295.44 696.5 299.91C700.19 298.11 703.88 296.3 707.57 294.5C707.03 289.83 706.49 285.17 705.95 280.5ZM775.5 281.07C770.83 282.54 766.17 284.01 761.5 285.48C760.5 297.28 759.5 309.09 758.5 320.89C762.5 320.36 766.5 319.84 770.5 319.31C772.69 314.96 772.64 309.35 773.2 304.5C774.07 296.91 776.1 288.66 775.5 281.07ZM356.5 287.89C354.55 296.59 357.45 313.26 358.81 322.5C368.85 324.91 378.88 327.32 388.92 329.74C388.92 319.99 388.92 310.25 388.92 300.5C378.11 296.3 367.31 292.09 356.5 287.89ZM520.5 287.51C519.03 290.51 517.55 293.5 516.08 296.5C517.55 298.06 519.03 299.62 520.5 301.18C523.13 299.23 524.37 296.64 525.36 293.5C523.74 291.5 522.12 289.51 520.5 287.51ZM751.5 288.45C740.38 292.54 729.25 296.63 718.13 300.72C718.13 310.43 718.13 320.14 718.13 329.85C728.25 327.41 738.38 324.97 748.5 322.52C749.5 311.17 750.5 299.81 751.5 288.45ZM586.5 288.92C585.02 290.78 583.53 292.64 582.05 294.5C583.53 296.94 585.02 299.38 586.5 301.82C587.91 300.38 589.32 298.94 590.73 297.5C589.32 294.64 587.91 291.78 586.5 288.92ZM422.5 290.26C420.95 293.92 419.85 299.68 420.97 303.5C428.83 307.11 436.7 310.71 444.56 314.32C444.56 310.71 444.56 307.11 444.56 303.5C437.21 299.09 429.85 294.68 422.5 290.26ZM685.5 290.85C677.92 295.4 670.34 299.95 662.76 304.5C662.76 307.85 662.76 311.2 662.76 314.56C668.06 314.21 682.66 306.87 687.2 303.5C686.63 299.28 686.07 295.07 685.5 290.85ZM531.5 301.59C530.18 303.56 528.86 305.53 527.55 307.5C534.2 314.47 540.85 321.45 547.5 328.42C547.8 324.66 545.65 322.14 543.58 318.91C539.78 312.99 535.88 307.1 531.5 301.59ZM576.5 302.49C574.19 303.59 573.04 305.76 571.47 307.95C568 312.77 559.57 322.87 559.5 328.38C566.14 321.75 572.79 315.13 579.43 308.5C578.46 306.5 577.48 304.49 576.5 302.49ZM399.5 304.08C397.25 311.25 397.19 325.38 398.5 332.83C401.94 334.06 405.38 335.28 408.81 336.5C409.49 327.5 410.18 318.5 410.86 309.5C407.07 307.69 403.29 305.89 399.5 304.08ZM512.5 305.24C508.79 311.6 506.95 319.33 504.76 326.32C503.61 330 501.73 333.3 502.5 336.95C507.23 327.8 511.96 318.65 516.7 309.5C515.3 308.08 513.9 306.66 512.5 305.24ZM707.5 304.84C704.09 306.39 700.68 307.95 697.28 309.5C697.28 318.39 697.28 327.29 697.28 336.18C700.9 334.95 704.53 333.73 708.16 332.5C708.68 323.87 710.21 313.04 707.5 304.84ZM594.5 306.47C593.17 307.09 591.17 307.85 590.88 309.55C590.49 311.81 592.98 314.63 593.94 316.56C596.76 322.2 599.65 327.79 602.5 333.41C602.97 326.32 597.59 313.17 594.5 306.47ZM454.5 309.85C452.75 312.32 452.72 315.4 452.34 318.5C454.73 319.79 457.11 321.07 459.5 322.36C460.28 320.07 461.05 317.79 461.83 315.5C459.39 313.62 456.94 311.73 454.5 309.85ZM652.86 310.5C650.36 312.17 647.86 313.83 645.36 315.5C645.52 318.47 645.79 320.93 647.5 323.29C649.86 322.03 652.23 320.76 654.59 319.5C654.01 316.5 653.44 313.5 652.86 310.5ZM418.45 313.45C418.45 322.47 418.45 331.48 418.45 340.5C425.47 343.87 432.48 347.24 439.5 350.62C440.45 341.58 441.39 332.54 442.34 323.5C434.38 320.15 426.41 316.8 418.45 313.45ZM687.5 313.58C679.94 317.22 672.38 320.86 664.83 324.5C665.38 333.18 665.94 341.86 666.5 350.54C673.83 347.18 681.17 343.83 688.5 340.47C690.46 332.59 689.44 321.5 687.5 313.58ZM523.5 315.25C518.35 324.67 513.21 334.08 508.06 343.5C514.87 350.94 521.69 358.39 528.5 365.83C534.98 357.93 539 345.76 543.54 336.5C536.86 329.42 530.18 322.33 523.5 315.25ZM583.5 315.71C577.09 322.3 570.67 328.9 564.26 335.5C565.82 341.47 569.31 347.03 571.73 352.74C573.76 357.49 575.36 363.05 579.5 366.25C586.04 359 592.57 351.75 599.11 344.5C593.91 334.9 588.7 325.3 583.5 315.71ZM469.5 321.11C468.83 322.91 468.16 324.7 467.49 326.5C475.37 331.17 483.25 335.83 491.13 340.5C487.36 334.13 475.92 325.07 469.5 321.11ZM637.5 321.74C630.32 327.99 623.14 334.25 615.96 340.5C620.33 340.24 629.26 333.57 633.53 331.02C634.93 330.19 638.3 328.96 638.85 327.33C639.49 325.45 638.24 323.37 637.5 321.74ZM251.5 324.24C239.41 322.91 226.65 324.5 214.5 325.02C198.17 325.71 181.51 325.66 165.27 327.5C181.28 351.5 197.28 375.5 213.28 399.5C218.34 398.17 223.39 396.83 228.44 395.5C217.96 378.17 207.48 360.83 197 343.5C201.66 341.61 207.43 342.09 212.5 341.83C222.17 341.32 231.83 340.58 241.5 340.17C246.33 339.97 252.08 340.53 256.5 338.82C254.83 333.96 253.17 329.1 251.5 324.24ZM278.68 323.97C273.22 323.97 267.76 323.97 262.3 323.97C264.04 329.16 265.77 334.35 267.5 339.53C272.55 339.53 277.61 339.53 282.66 339.53C281.33 334.35 280 329.16 278.68 323.97ZM844.95 324.11C839.86 324.11 834.76 324.11 829.67 324.11C828.11 329.31 826.56 334.51 825.01 339.71C829.88 339.71 834.75 339.71 839.62 339.71C841.4 334.51 843.17 329.31 844.95 324.11ZM856.5 324.14C854.71 329.26 852.93 334.38 851.14 339.5C856.49 340.4 862.07 340.09 867.5 340.32C876.17 340.67 884.83 341.35 893.5 341.78C899.3 342.06 905.8 341.55 911.22 343.5C900.61 361.17 889.99 378.83 879.37 396.5C884.41 397.69 889.46 398.88 894.5 400.07C910.58 375.88 926.65 351.69 942.73 327.5C913.98 326.38 885.24 325.26 856.5 324.14ZM326.61 328.5C318.17 326.66 296.42 323.86 288.57 325.5C290.1 330.17 291.63 334.83 293.15 339.5C304.99 340.5 316.83 341.5 328.67 342.5C330.42 339.25 327.86 332.02 326.61 328.5ZM819.37 325.5C811.52 323.81 789.02 326.77 780.5 328.56C779.6 333.21 778.69 337.85 777.79 342.5C790.14 341.5 802.5 340.5 814.85 339.5C816.36 334.83 817.87 330.17 819.37 325.5ZM451.5 328.26C449.28 334.4 449.37 341.97 449.15 348.5C449.05 351.47 448.36 354.39 450.5 356.59C452.47 355.01 452.63 352.44 453.3 349.69C454.79 343.63 456.14 337.52 457.77 331.5C455.68 330.42 453.59 329.34 451.5 328.26ZM655.5 328.79C653.5 329.7 651.5 330.62 649.5 331.54C648.87 337.44 650.97 343.6 651.94 349.5C652.45 352.63 652.5 355.85 654.5 357.97C657.76 355.74 657.13 353.21 657.09 349.5C657.01 342.7 657.18 335.38 655.5 328.79ZM337.5 330C338.37 334.82 339.23 339.65 340.1 344.47C344.23 344.47 348.37 344.47 352.5 344.47C351.62 340.15 350.74 335.82 349.86 331.5C345.74 331 341.62 330.5 337.5 330ZM769.5 330.53C765.44 330.53 761.38 330.53 757.32 330.53C756.38 335.43 755.44 340.32 754.5 345.22C758.69 344.64 762.87 344.07 767.06 343.5C767.87 339.18 768.69 334.85 769.5 330.53ZM389.41 340.5C382.83 338.1 367.07 333.09 360.5 333.74C361.02 338 361.54 342.25 362.05 346.5C371.17 348.25 380.29 350 389.41 351.75C389.41 348 389.41 344.25 389.41 340.5ZM746.5 333.54C736.66 335.86 726.81 338.18 716.97 340.5C716.97 344.18 716.97 347.85 716.97 351.53C723.5 352.55 737.33 348.55 744.5 347.11C746.03 342.8 747.04 338.05 746.5 333.54ZM465.5 335.37C463.34 344.08 461.19 352.79 459.03 361.5C467.19 367.23 475.34 372.96 483.5 378.69C485.64 368.96 487.78 359.23 489.92 349.5C481.78 344.79 473.64 340.08 465.5 335.37ZM641.5 336.3C636.03 337.29 620.95 346.49 616.72 350.5C617.59 356.74 620.54 374.96 623.45 379.5C631.17 373.83 638.89 368.17 646.61 362.5C644.91 353.77 643.2 345.04 641.5 336.3ZM399.07 343.23C399.07 346.81 399.07 350.38 399.07 353.96C402.36 354.66 405.65 355.37 408.94 356.07C408.94 352.93 408.94 349.8 408.94 346.66C405.65 345.52 402.36 344.38 399.07 343.23ZM707.3 343.6C704.1 344.57 700.89 345.53 697.68 346.5C697.68 349.83 697.68 353.17 697.68 356.5C700.89 355.9 704.1 355.29 707.3 354.69C707.3 350.99 707.3 347.3 707.3 343.6ZM553.5 347.32C545.91 353.5 539.67 363.62 535.82 372.5C542.05 378.52 548.27 384.53 554.5 390.55C560.14 384.87 565.78 379.18 571.41 373.5C567.41 363.9 561.26 354.36 553.5 347.32ZM260.6 349.5C245.06 350.17 229.52 350.83 213.98 351.5C222.15 365.29 230.33 379.07 238.5 392.86C250.99 390.74 263.48 388.62 275.97 386.5C270.85 374.17 265.73 361.83 260.6 349.5ZM286.53 349.14C281.6 349.14 276.68 349.14 271.76 349.14C273.84 358.54 281.31 376.45 286.5 384.54C290.82 384.54 295.13 384.54 299.45 384.54C295.14 372.74 290.83 360.94 286.53 349.14ZM331.5 352.38C320.12 351.42 308.73 350.46 297.35 349.5C297.49 357.16 305.97 375.18 309.5 382.85C319.49 382.85 329.47 382.85 339.46 382.85C336.81 372.7 334.15 362.54 331.5 352.38ZM835.8 349.22C831.03 349.22 826.27 349.22 821.5 349.22C817.17 361.19 812.83 373.16 808.5 385.13C812.5 385.13 816.5 385.13 820.5 385.13C825.6 373.16 830.7 361.19 835.8 349.22ZM847.5 349.23C842.01 361.65 836.52 374.08 831.02 386.5C843.81 388.83 856.6 391.17 869.39 393.5C877.64 379.83 885.89 366.17 894.14 352.5C890.34 350.15 884.08 350.96 879.5 350.68C868.84 350.02 858.19 349.29 847.5 349.23ZM417.28 350.47C417.28 353.21 417.28 355.95 417.28 358.68C424.83 360.62 432.37 362.56 439.92 364.5C439.92 363.26 440.3 361.99 439.66 360.82C438.88 359.42 435.46 358.18 434.05 357.46C428.85 354.82 423.04 351.32 417.28 350.47ZM689.63 350.42C683.59 351.3 677.66 354.94 672.17 357.64C670.59 358.41 667.37 359.39 666.36 360.88C665.39 362.32 665.72 363.89 665.7 365.5C673.68 363.28 681.66 361.05 689.63 358.83C689.63 356.03 689.63 353.22 689.63 350.42ZM811 350.5C804.74 348.73 783 351.14 775.83 352.5C773.09 362.17 770.35 371.83 767.61 381.5C772.65 384.21 790.49 382.98 797.5 383.61C802 372.57 806.5 361.54 811 350.5ZM354.35 355.5C350.36 354.83 346.36 354.17 342.37 353.5C344.75 363.46 347.12 373.42 349.5 383.38C352.88 383.38 356.25 383.38 359.63 383.38C357.87 374.09 356.11 364.79 354.35 355.5ZM764.5 353.76C760.65 354.34 756.8 354.92 752.95 355.5C750.99 364.63 749.03 373.75 747.07 382.88C750.43 382.88 753.8 382.88 757.17 382.88C759.62 373.17 762.06 363.47 764.5 353.76ZM364.5 356.63C363.36 362.7 366.93 378.2 368.96 384.5C377.35 385.83 385.74 387.17 394.14 388.5C392.92 379.44 391.71 370.38 390.5 361.32C381.83 359.76 373.17 358.19 364.5 356.63ZM501.5 356.79C496.84 364.88 493.6 374.28 492.26 383.5C498.67 387.06 505.09 390.63 511.5 394.19C515.35 387.63 519.19 381.06 523.04 374.5C517.54 367.92 509.19 360.58 501.5 356.79ZM742.5 356.74C733.5 358.44 724.5 360.13 715.5 361.82C714 370.38 712.5 378.94 710.99 387.5C719.99 386.17 728.98 384.83 737.97 383.5C739.88 376.15 743.44 364 742.5 356.74ZM605.5 357.73C597.86 362.28 589.96 368.7 584.17 375.5C587.61 381.69 591.06 387.87 594.5 394.06C601.01 390.54 607.52 387.02 614.03 383.5C612.7 374.91 610.08 365.17 605.5 357.73ZM400.5 363.4C400.32 369.79 401.62 376.31 402.71 382.6C403.05 384.59 403 388.54 404.32 390.2C405.39 391.56 408.01 391.61 409.57 391.89C409.57 383.1 409.57 374.3 409.57 365.5C406.54 364.8 403.52 364.1 400.5 363.4ZM705.5 364.17C702.83 364.71 700.17 365.26 697.5 365.81C696.35 373.41 694.73 383.85 696.5 391.24C698 390.87 699.94 390.73 701.01 389.46C702.35 387.87 702.5 384.5 702.92 382.49C704.17 376.55 705.48 370.22 705.5 364.17ZM657.32 366.5C655.18 366.93 655.45 366.7 655.5 369.02C656.11 368.18 656.71 367.34 657.32 366.5ZM417.32 367.44C417.32 376.46 417.32 385.48 417.32 394.5C425.71 397.34 434.11 400.18 442.5 403.03C441.67 393.18 440.84 383.34 440.02 373.5C432.45 371.48 424.88 369.46 417.32 367.44ZM689.06 368.34C681.91 367.7 672.45 371.87 665.5 374.27C664.26 379.47 661.41 399.46 662.5 403.91C671.35 400.44 680.21 396.97 689.06 393.5C689.06 385.11 689.06 376.73 689.06 368.34ZM455.5 378.98C453.61 387.75 450.62 396.45 453.5 405.27C460.83 406.88 468.17 408.49 475.5 410.09C477.23 403.23 478.95 396.36 480.68 389.5C474.3 384.34 463.64 379.56 455.5 378.98ZM649.5 379.63C641.46 381.99 633.6 386.01 626.53 390.5C628.19 397 629.84 403.49 631.5 409.99C637.97 408.49 644.44 407 650.91 405.5C653.18 398.91 652.45 385.99 649.5 379.63ZM530.5 381.83C527.33 385.24 518 400.23 517.43 404.5C523.7 403.11 530.11 401.76 536.5 401.1C540.06 400.73 544.1 401.36 546.53 398.5C541.19 392.94 535.84 387.39 530.5 381.83ZM576.5 382.04C570.72 387.86 564.94 393.68 559.16 399.5C569.14 400.83 579.11 402.17 589.08 403.5C584.89 396.35 580.69 389.19 576.5 382.04ZM342.63 392.5C334.74 391.68 321.33 391.03 313.93 393.5C315.79 396.95 317.64 400.41 319.5 403.86C326.27 403.82 340.58 403.94 346.29 401.5C345.07 398.5 343.85 395.5 342.63 392.5ZM753.64 392.54C750.59 392.54 747.55 392.54 744.5 392.54C743.75 395.92 742.99 399.3 742.24 402.69C744.99 402.69 747.75 402.69 750.5 402.69C751.55 399.3 752.59 395.92 753.64 392.54ZM793.94 392.48C783.97 392.48 774 392.48 764.03 392.48C762.81 395.82 761.6 399.16 760.38 402.5C769.75 403.24 779.13 403.98 788.5 404.72C790.31 400.64 792.12 396.56 793.94 392.48ZM361.91 393.04C359.03 393.04 356.14 393.04 353.26 393.04C354.32 395.95 355.37 398.86 356.43 401.76C358.78 401.76 361.14 401.76 363.5 401.76C362.97 398.86 362.44 395.95 361.91 393.04ZM734.97 393.5C728.76 393.95 722.64 394.88 716.5 395.94C714.43 396.3 710.8 396.39 709.14 397.73C707.84 398.8 707.96 401.41 707.73 402.87C716.17 402.87 724.61 402.87 733.06 402.87C733.7 399.75 734.33 396.62 734.97 393.5ZM304.5 394.25C300.24 393.61 295.6 393.68 291.61 395.5C293.57 399.24 295.54 402.97 297.5 406.71C301.43 405.97 305.36 405.24 309.29 404.5C307.7 401.08 306.1 397.67 304.5 394.25ZM397.33 401.9C397.08 400.64 397.19 399.14 396.27 398.11C395.11 396.81 391.42 396.86 389.82 396.57C383.73 395.44 376.81 393.73 370.71 394.5C371.31 396.97 371.9 399.44 372.5 401.9C380.78 401.9 389.05 401.9 397.33 401.9ZM489.5 394.19C487.49 402.29 485.49 410.4 483.48 418.5C488.15 415.92 492.86 413.41 497.74 411.25C499.84 410.32 503.03 409.79 504.7 408.2C505.71 407.24 506.12 405.55 506.5 404.3C500.83 400.93 495.17 397.56 489.5 394.19ZM803.5 394.64C801.69 398.26 799.88 401.88 798.07 405.5C801.88 406.17 805.7 406.83 809.51 407.5C811.43 403.21 813.35 398.93 815.27 394.64C811.34 394.64 807.42 394.64 803.5 394.64ZM616.5 395.3C611.12 398.37 605.74 401.43 600.37 404.5C600.71 405.93 600.87 407.34 602.06 408.4C602.75 409.02 616.52 415.06 617.5 415.19C618.94 415.37 620.12 414.96 621.5 414.71C619.83 408.24 618.17 401.77 616.5 395.3ZM280.5 396.22C268.64 398.31 256.77 400.41 244.91 402.5C247.44 406.74 249.97 410.97 252.5 415.21C263.87 412.97 275.23 410.74 286.6 408.5C284.57 404.41 282.53 400.31 280.5 396.22ZM826.5 396.91C824.5 400.98 822.5 405.05 820.5 409.12C832.13 411.25 843.76 413.37 855.39 415.5C857.88 411.5 860.36 407.5 862.84 403.5C850.72 401.3 838.61 399.11 826.5 396.91ZM699.49 399.76C697.88 399.76 696.27 399.76 694.66 399.76C694.63 401.01 694.6 402.25 694.57 403.5C695.79 403.5 697.01 403.5 698.24 403.5C698.65 402.25 699.07 401.01 699.49 399.76ZM406.5 399.79C406.68 402.36 407.04 402.58 409.76 402.5C409.24 400.02 409.37 400.3 406.5 399.79ZM234.5 404.73C229.48 405.98 224.46 407.24 219.44 408.5C222.46 412.84 225.48 417.18 228.5 421.52C233.25 420.18 237.99 418.84 242.74 417.5C239.99 413.24 237.25 408.98 234.5 404.73ZM887.79 409.5C882.94 408.17 878.1 406.83 873.25 405.5C870.51 409.5 867.77 413.5 865.03 417.5C868.3 420.31 875.09 421.4 879.5 421.87C882.26 417.75 885.02 413.62 887.79 409.5ZM372.5 434.67C373.55 429.4 369.72 421.74 368.15 416.44C367.72 414.98 367.32 411.48 366.02 410.55C364.43 409.41 361.97 410.18 360.25 410.5C361.71 415.64 368.55 431.92 372.5 434.67ZM399.5 409.97C391.89 409.16 381.92 408.27 374.65 410.5C376.94 418.54 379.22 426.59 381.5 434.63C390.29 434.63 399.08 434.63 407.87 434.63C405.08 426.41 402.29 418.19 399.5 409.97ZM409.5 410.04C408.81 413.36 410.03 416.68 411.5 419.98C411.77 416.43 411.98 412.39 409.5 410.04ZM443.5 413.5C437.11 411.46 424.8 409.14 418.5 411.03C419.17 419.37 419.83 427.7 420.5 436.04C427.99 437.69 435.92 437.62 443.5 436.74C443.5 428.99 443.5 421.25 443.5 413.5ZM730.67 410.4C722.28 410.4 713.89 410.4 705.5 410.4C702.83 419.08 700.17 427.75 697.5 436.42C706.5 435.58 715.5 434.74 724.5 433.9C727.47 427.22 730.78 417.64 730.67 410.4ZM350.5 411.42C344.35 410.24 329.56 411.38 323.5 413.32C327.83 421.62 332.17 429.93 336.5 438.23C341.9 437.82 357.44 436.87 361.28 434.5C357.69 426.81 354.09 419.12 350.5 411.42ZM551.59 411.46C532.99 411.98 514.32 415.71 497.61 424.13C450.6 447.82 419.69 500.31 426.22 553.48C430.16 585.62 446.14 614.87 470.21 636.32C481.66 646.52 495.3 654.46 509.65 659.78C525.03 665.49 541.06 668.3 557.5 667.92C573.7 667.55 589.88 663.77 604.67 657.2C664.56 630.62 696.19 562.55 675.61 499.81C668.99 479.63 657.1 461.31 641.98 446.52C630.6 435.39 616.44 426.71 601.77 420.7C586.14 414.29 568.48 410.99 551.59 411.46ZM686.84 411.5C678.03 410.23 669.91 412.52 661.71 415.5C661.71 422.74 661.71 429.98 661.71 437.21C669.36 437.21 677.01 437.21 684.67 437.21C685.39 428.64 686.12 420.07 686.84 411.5ZM696.5 411.41C694.82 411.6 696.22 410.65 694.67 411.2C692.14 412.11 693.22 418.72 693.5 420.44C694.5 417.43 695.5 414.42 696.5 411.41ZM739.5 411.24C737.37 417.56 732.83 428.08 733.5 434.33C734.5 434.01 735.09 434.17 736.01 433.52C737.49 432.49 738.55 429.42 739.37 427.85C742.06 422.65 745.44 416.95 746.55 411.24C744.2 411.24 741.85 411.24 739.5 411.24ZM208.5 411.84C203.63 412.6 199.11 414.4 194.4 415.8C181.26 419.69 168.35 424.44 155.38 428.85C147.81 431.42 132.62 435.37 126.63 439.5C148.25 458.31 169.88 477.11 191.5 495.92C195.98 493.44 200.46 490.97 204.95 488.5C190.33 474.17 175.72 459.83 161.11 445.5C179.99 438.5 198.87 431.5 217.75 424.5C214.67 420.28 211.58 416.06 208.5 411.84ZM756.5 412.12C752.83 419.59 749.17 427.06 745.5 434.53C754.5 435.56 763.5 436.6 772.5 437.63C776.43 429.92 780.36 422.21 784.28 414.5C777.82 411.71 763.55 411.3 756.5 412.12ZM898.5 412.43C895.59 416.45 892.69 420.48 889.78 424.5C894.16 428.09 901.84 429.34 907.34 431.2C920.48 435.66 934.96 439.35 947.38 445.5C932.54 460.17 917.7 474.83 902.86 489.5C907.08 492 911.29 494.49 915.5 496.99C937.41 477.83 959.32 458.66 981.24 439.5C973.85 434.83 960.2 431.81 951.55 428.94C938.96 424.76 926.39 420.47 913.66 416.75C908.63 415.28 903.66 413.35 898.5 412.43ZM314.28 414.62C310.45 414.62 306.62 414.62 302.8 414.62C304.3 421.6 313.57 436.43 318.5 442.04C321.37 441.19 324.23 440.35 327.1 439.5C322.83 431.21 318.55 422.91 314.28 414.62ZM472.54 420.5C465.98 418.83 459.43 417.17 452.87 415.5C452.87 422.64 452.87 429.78 452.87 436.91C454.92 436.99 457.25 437.39 459.24 436.68C461.09 436.02 462.59 433.79 464.04 432.52C468.89 428.29 472.53 427.81 472.54 420.5ZM804.75 415.66C801.06 415.66 797.37 415.66 793.68 415.66C789.54 423.61 785.39 431.55 781.25 439.5C784 440.29 786.75 441.07 789.5 441.86C794.58 433.12 799.67 424.39 804.75 415.66ZM651.72 416.5C645.8 417.83 639.87 419.17 633.94 420.5C634.13 422.39 634.09 424.64 635.05 426.36C635.85 427.79 646.16 436.35 647.68 436.79C649.11 437.21 650.29 436.82 651.72 436.7C651.72 429.97 651.72 423.23 651.72 416.5ZM292.18 417.5C284.36 417.38 275.97 420.06 268.32 421.7C264.97 422.42 261.53 422.67 258.68 424.5C265.62 434.04 272.56 443.58 279.5 453.12C289.08 450.25 298.67 447.37 308.25 444.5C302.89 435.5 297.54 426.5 292.18 417.5ZM815.5 418.06C810.28 426.88 805.06 435.69 799.83 444.5C809.06 447.58 818.28 450.65 827.5 453.73C833.83 448.86 838.51 440.15 843.09 433.63C845.18 430.66 847.71 427.94 848.7 424.5C837.64 422.35 826.57 420.21 815.5 418.06ZM248.5 426.18C244.07 427.62 239.63 429.06 235.2 430.5C243.3 440.55 251.4 450.59 259.5 460.64C263.2 459.26 266.89 457.88 270.59 456.5C263.23 446.39 255.86 436.28 248.5 426.18ZM859.5 426.99C852.11 437.16 844.72 447.33 837.34 457.5C840.72 458.87 844.11 460.24 847.5 461.61C851.97 458.1 855.41 452.92 858.99 448.52C863.57 442.9 869.33 437 872.46 430.5C868.14 429.33 863.82 428.16 859.5 426.99ZM224.5 433.51C209.42 438.84 194.35 444.17 179.27 449.5C191.02 460.9 202.76 472.29 214.5 483.69C226.33 477.63 238.15 471.56 249.98 465.5C241.49 454.84 232.99 444.18 224.5 433.51ZM883.5 433.76C874.92 444.34 866.35 454.92 857.77 465.5C861.1 469.08 867.02 470.85 871.49 473.01C878.94 476.61 886.16 480.67 893.5 484.47C905.35 472.82 917.2 461.16 929.06 449.5C913.87 444.25 898.69 439.01 883.5 433.76ZM394.1 443.5C390.54 442.8 387.29 442.49 383.91 443.5C385.09 444.51 383.4 444.02 384.76 444.72C386.77 445.76 392 443.88 394.1 443.5ZM368.5 447.6C367.99 446.61 367.33 444.78 366.24 444.28C364.23 443.36 360.9 444.21 358.78 444.45C353.19 445.09 346.79 445.13 341.68 447.5C342.95 449.62 344.23 451.74 345.5 453.85C353.17 451.77 360.83 449.68 368.5 447.6ZM767.33 447.5C764.29 445.42 745.49 442.91 741.5 443.61C739.6 443.95 739.14 444.95 738.24 446.5C746.66 448.9 755.08 451.3 763.5 453.7C764.78 451.64 766.05 449.57 767.33 447.5ZM443.65 446.87C436.85 446.87 430.05 446.87 423.25 446.87C423.96 452.15 428.5 468.57 431.5 472.16C434.12 468.08 436.61 463.85 439.39 459.88C440.97 457.64 443.64 455.23 444.26 452.48C444.72 450.43 444.16 448.73 443.65 446.87ZM682.7 446.72C675.77 446.72 668.85 446.72 661.93 446.72C660.55 451.37 663.8 454.56 666.45 458.08C669.86 462.63 672.76 467.58 675.5 472.55C677.41 470.9 677.79 467.62 678.44 464.86C679.84 458.86 682.23 452.82 682.7 446.72ZM718.5 451.48C711.79 448.65 700.67 446.76 693.5 448C691.31 455.5 689.13 463 686.94 470.5C693.46 472.21 699.98 473.93 706.5 475.64C712.27 468.87 715.86 459.9 718.5 451.48ZM412.5 448.07C404.09 449.55 395.68 451.02 387.27 452.5C389.21 460.5 393.09 470.66 399.5 476.08C406.36 474.22 413.21 472.36 420.07 470.5C417.55 463.02 415.02 455.55 412.5 448.07ZM783.9 450.5C781.34 449.83 778.78 449.17 776.21 448.5C774.7 450.83 773.18 453.17 771.66 455.5C773.94 456.4 776.22 457.3 778.5 458.2C780.3 455.63 782.1 453.07 783.9 450.5ZM332.5 449.6C330.04 449.6 327.58 449.6 325.12 449.6C326.58 452.41 328.04 455.22 329.5 458.03C331.83 457.32 334.17 456.6 336.5 455.89C335.17 453.79 333.83 451.69 332.5 449.6ZM314.5 453.26C305.32 456.01 296.15 458.75 286.97 461.5C289.48 464.82 291.99 468.13 294.5 471.45C303.16 468.13 311.82 464.82 320.48 461.5C318.49 458.75 316.49 456.01 314.5 453.26ZM821.4 462.5C816.2 459.11 799.92 453.85 793.71 453.5C791.81 456.17 789.91 458.83 788.01 461.5C796.5 464.95 805 468.41 813.5 471.86C816.13 468.74 818.77 465.62 821.4 462.5ZM733.5 454.31C728.07 462.04 722.63 469.77 717.2 477.5C726.73 479.17 736.26 480.83 745.79 482.5C750.17 475.5 754.55 468.5 758.93 461.5C750.45 459.1 741.98 456.71 733.5 454.31ZM372.5 454.88C364.9 457.09 357.3 459.29 349.69 461.5C354.21 468.83 358.73 476.17 363.24 483.5C371.49 481.83 379.73 480.17 387.97 478.5C387.07 474.92 375.44 457.85 372.5 454.88ZM341.5 464.16C339.64 464.94 337.78 465.72 335.93 466.5C339.45 471.39 349.16 484.63 354.5 485.91C354.3 482.06 344.47 467.83 341.5 464.16ZM766.5 464.13C762.17 471.02 757.83 477.92 753.5 484.81C754.64 484.89 755.14 485.36 756.33 484.99C757.96 484.5 759.6 481.46 760.72 480.23C764.78 475.76 768.76 471.23 772.52 466.5C770.76 464.51 769.09 464.33 766.5 464.13ZM277.5 465.21C274.02 466.64 270.53 468.07 267.05 469.5C270.2 472.76 273.35 476.02 276.5 479.28C279.5 477.86 282.5 476.43 285.5 475C282.83 471.74 280.17 468.47 277.5 465.21ZM830.5 465.79C827.77 469.03 825.04 472.26 822.31 475.5C825.37 476.99 828.44 478.49 831.5 479.98C834.5 476.82 837.49 473.66 840.49 470.5C837.16 468.93 833.83 467.36 830.5 465.79ZM326.5 469.05C318.04 472.53 309.59 476.02 301.13 479.5C307.25 485.9 313.38 492.31 319.5 498.71C327.52 495.64 335.53 492.57 343.55 489.5C337.87 482.68 332.18 475.87 326.5 469.05ZM806.91 479.5C798.49 476.17 790.07 472.83 781.65 469.5C776.42 475.5 771.2 481.5 765.97 487.5C774.15 491.01 782.32 494.51 790.5 498.02C795.97 491.84 801.44 485.67 806.91 479.5ZM257.5 473.42C249.71 476.3 242.14 480.49 234.76 484.29C230.57 486.45 225.89 488.24 222.52 491.5C226.18 494.92 229.84 498.35 233.5 501.77C244.67 495.68 255.83 489.59 267 483.5C263.83 480.14 260.67 476.78 257.5 473.42ZM850.5 474.13C847.3 477.59 844.1 481.04 840.9 484.5C852.1 490.57 863.3 496.63 874.5 502.7C878.16 499.3 881.81 495.9 885.47 492.5C882.08 488.93 877.09 487.06 872.7 484.79C865.47 481.05 858.13 477.01 850.5 474.13ZM423.5 480.46C419.18 480.51 408.21 483.69 405.12 486.5C408.58 491.75 412.04 497.01 415.5 502.26C416.97 501.7 418.46 501.33 419.59 500.1C421.17 498.38 424.75 487.92 424.81 485.48C424.85 483.78 424.03 482.04 423.5 480.46ZM701.39 485.5C695.7 483.83 690.01 482.17 684.33 480.5C683.48 482.02 682.47 483.69 682.47 485.56C682.47 487.34 686 498.04 687.02 499.41C688.1 500.86 689.93 501.43 691.5 502.12C694.8 496.58 698.09 491.04 701.39 485.5ZM292.5 482.97C289.6 484.15 286.69 485.32 283.79 486.5C286.46 491.96 298.31 502.06 303.5 506.02C305.74 504.84 307.97 503.67 310.21 502.5C304.31 495.99 298.4 489.48 292.5 482.97ZM815.5 483.89C810.17 490.05 804.83 496.22 799.5 502.38C801.83 503.46 804.17 504.55 806.5 505.63C812.58 499.59 818.65 493.54 824.73 487.5C821.65 486.3 818.58 485.09 815.5 483.89ZM711.5 487.99C707.74 494.16 703.98 500.33 700.22 506.5C703.37 510.39 714.63 516.82 719.5 518.02C725.56 511.84 730.54 505.62 735.49 498.5C729.21 493.33 719.37 489.9 711.5 487.99ZM374.19 489.5C371.5 489.41 369.97 489.59 368.29 491.5C370.26 490.83 372.22 490.17 374.19 489.5ZM395.5 489.33C388.08 492.39 380.66 495.44 373.24 498.5C375.76 505.89 383.03 513.65 389.5 517.96C395.17 514.29 400.83 510.63 406.5 506.96C402.83 501.09 399.17 495.21 395.5 489.33ZM740.81 489.66C738.72 489.66 736.62 489.66 734.53 489.66C738.41 491.26 738.73 492.81 740.81 489.66ZM274.5 491.14C263.34 496.93 252.19 502.71 241.03 508.5C249.19 515.59 257.34 522.69 265.5 529.78C275.21 523.69 284.92 517.59 294.64 511.5C293.32 508.3 290.07 506.44 287.5 504C283.07 499.82 279.04 495.2 274.5 491.14ZM833.5 492.12C827.32 498.25 821.13 504.37 814.95 510.5C824.47 516.88 833.98 523.26 843.5 529.64C851.21 522.93 858.91 516.21 866.62 509.5C860.28 504.76 852.72 501.37 845.65 497.85C841.63 495.85 837.87 493.16 833.5 492.12ZM213.5 495.89C209.25 498.42 205 500.96 200.74 503.5C205 506.98 209.25 510.47 213.5 513.95C217.11 511.47 220.72 508.98 224.33 506.5C220.72 502.96 217.11 499.42 213.5 495.89ZM352.89 499.5C352.3 498.35 351.85 496.71 350.31 496.36C348.54 495.95 345.42 497.74 343.74 498.32C337.84 500.34 331.8 502.57 326.29 505.5C327.7 507.28 329.1 509.06 330.5 510.84C337.96 507.06 345.43 503.28 352.89 499.5ZM783.28 505.5C777.95 501.7 770.96 499.73 764.77 497.66C761.38 496.52 758.96 494.97 756 497.5C756.25 497.96 756.18 498.57 756.49 498.99C757.58 500.45 760.77 501.3 762.37 502.11C767.73 504.85 773.11 507.58 778.5 510.26C780.09 508.68 781.69 507.09 783.28 505.5ZM894.5 496.92C890.73 500.45 886.96 503.97 883.19 507.5C886.96 510.03 890.73 512.56 894.5 515.09C898.74 511.56 902.99 508.03 907.23 504.5C902.99 501.97 898.74 499.45 894.5 496.92ZM360.5 505.24C352.76 509.32 345.02 513.41 337.28 517.5C343.69 523.67 350.09 529.84 356.5 536.01C364.37 532.17 372.23 528.34 380.1 524.5C376.85 517.87 366.18 510.48 360.5 505.24ZM749.5 504.55C742.17 511 734.83 517.46 727.5 523.91C736.17 527.8 744.83 531.69 753.5 535.58C759.85 529.22 766.19 522.86 772.54 516.5C764.86 512.52 757.18 508.53 749.5 504.55ZM191.5 509.19C168.89 523.63 146.28 538.06 123.66 552.5C146.94 565.33 170.22 578.17 193.5 591C197.27 587.5 201.05 584 204.82 580.5C189.24 570.83 173.65 561.17 158.07 551.5C169.18 544.36 180.15 537.08 190.93 529.44C195.24 526.39 200.94 523.69 204.09 519.5C199.89 516.06 195.7 512.63 191.5 509.19ZM791.5 509.3C790.01 511.04 788.51 512.77 787.02 514.5C788.85 515.62 790.67 516.73 792.5 517.85C794.36 516.07 796.22 514.28 798.08 512.5C795.89 511.43 793.69 510.37 791.5 509.3ZM317.5 510.01C315.66 510.84 313.83 511.67 311.99 512.5C313.83 514.33 315.66 516.16 317.5 517.99C319.19 517.16 320.87 516.33 322.56 515.5C320.87 513.67 319.19 511.84 317.5 510.01ZM916.5 509.94C912.33 513.46 908.16 516.98 903.99 520.5C919.53 531.17 935.07 541.83 950.6 552.5C934.71 562.17 918.82 571.83 902.93 581.5C906.79 584.88 910.64 588.26 914.5 591.64C937.7 578.6 960.89 565.55 984.09 552.5C961.56 538.31 939.03 524.13 916.5 509.94ZM231.5 513.71C228.38 515.98 225.26 518.24 222.15 520.5C231.26 527.57 240.38 534.65 249.5 541.72C252.07 539.65 254.65 537.57 257.22 535.5C248.65 528.24 240.07 520.98 231.5 513.71ZM412.5 515.26C406.99 518.67 401.49 522.09 395.98 525.5C400.82 530.15 405.66 534.8 410.5 539.45C411.79 538.2 413.77 536.74 414.44 535C415.35 532.65 416.23 523.25 415.71 520.68C415.32 518.73 413.58 516.88 412.5 515.26ZM875.5 514.6C867.31 521.56 859.13 528.53 850.94 535.5C853.79 537.86 856.65 540.21 859.5 542.57C868.3 535.55 877.1 528.52 885.91 521.5C882.44 519.2 878.97 516.9 875.5 514.6ZM694.5 516.08C693.69 517.46 692.5 519.01 692.18 520.6C691.62 523.37 692.39 533.61 693.36 536.22C693.88 537.62 695.47 538.8 696.5 539.82C701.57 535.05 706.65 530.27 711.72 525.5C707.05 522.03 700.14 517.06 694.5 516.08ZM302.5 517.65C292.96 523.34 281.64 528.62 273.74 536.5C276.33 538.54 278.91 540.59 281.5 542.63C290.65 536.25 299.8 529.88 308.95 523.5C306.8 521.55 304.65 519.6 302.5 517.65ZM807.5 517.88C804.67 519.29 802.44 520.7 801.05 523.5C809.86 529.75 818.68 536 827.5 542.25C829.9 540.33 832.31 538.42 834.71 536.5C827.42 528.9 816.63 523.03 807.5 517.88ZM779.5 520.91C772.98 527.11 766.46 533.3 759.94 539.5C763.08 539.95 764.63 538.56 767.28 536.77C772.08 533.53 782.16 528.23 784.83 523.5C783.05 522.64 781.28 521.77 779.5 520.91ZM346.42 537.5C342.53 533.59 338.46 529.85 334.52 525.98C333.2 524.69 331.46 522.05 329.48 521.93C327.72 521.82 326.58 523.34 325.5 524.36C329.47 528.1 341.38 537.09 346.42 537.5ZM212.5 526.35C200.65 534.73 188.8 543.12 176.95 551.5C188.8 558.74 200.65 565.98 212.5 573.22C221.99 564.98 231.48 556.74 240.97 548.5C231.48 541.12 221.99 533.73 212.5 526.35ZM932.12 551.5C919.91 543.5 907.7 535.5 895.5 527.5C886.14 534.83 876.79 542.17 867.44 549.5C876.79 557.73 886.15 565.97 895.5 574.2C907.71 566.63 919.91 559.07 932.12 551.5ZM317.5 529.05C311.14 531.22 293.78 543.14 289.83 548.5C298.72 554.11 307.61 559.71 316.5 565.32C324.71 558.71 332.93 552.11 341.14 545.5C333.26 540.02 325.38 534.53 317.5 529.05ZM793.5 528.97C785.58 534.48 777.66 539.99 769.74 545.5C777.66 551.75 785.58 557.99 793.5 564.24C799.52 562.62 815.57 552.28 819.72 547.5C812.18 540.24 802.75 533.84 793.5 528.97ZM387.5 530.85C380.74 534.3 372.35 540.89 368.57 547.5C375.55 553.1 382.97 558.78 391.61 561.5C395.66 556.5 399.72 551.5 403.77 546.5C398.35 541.28 392.92 536.07 387.5 530.85ZM720.5 531.45C714.96 536.47 709.42 541.48 703.88 546.5C708.08 551.56 712.29 556.61 716.5 561.67C725.16 557.77 732.44 553.27 739.98 547.5C736.64 541.4 726.4 535.32 720.5 531.45ZM265.5 542.13C263.06 544.26 260.62 546.38 258.18 548.5C261.28 550.62 264.39 552.74 267.5 554.86C269.69 552.74 271.87 550.62 274.06 548.5C271.21 546.38 268.35 544.26 265.5 542.13ZM842.5 542.29C839.96 544.36 837.43 546.43 834.89 548.5C837.09 550.71 839.3 552.92 841.5 555.13C844.91 553.72 848.23 551.59 850.22 548.5C847.64 546.43 845.07 544.36 842.5 542.29ZM351.5 552.39C348.4 551.04 346.66 553.69 343.98 555.49C338.93 558.88 328.56 565.3 326.05 570.5C328.21 571.5 330.37 572.5 332.54 573.5C338.86 566.46 345.18 559.43 351.5 552.39ZM784.45 569.5C779.47 564.01 772.62 559.1 766.37 555.1C763.75 553.42 761.53 551.1 758.5 552.14C758.35 554.99 760.83 556.41 762.89 558.62C767.45 563.5 772.08 569.4 777.5 573.21C779.82 571.97 782.13 570.74 784.45 569.5ZM410.5 553.22C407.03 557.65 403.56 562.07 400.08 566.5C406.22 569.97 412.36 573.45 418.5 576.92C418.82 574.55 416.27 559.49 415.24 557.28C414.3 555.28 412.33 554.07 410.5 553.22ZM282.5 554.12C280.07 555.91 277.63 557.71 275.2 559.5C278.64 564 290.54 569.61 295.95 572.54C298.62 573.99 301.47 576.14 304.5 576.49C306.15 574.83 307.81 573.16 309.46 571.5C300.47 565.71 291.49 559.91 282.5 554.12ZM695.5 553.9C694.27 555 692.77 556.1 692.02 557.62C690.63 560.43 689 572.62 690.05 575.5C695.79 572.5 701.53 569.5 707.28 566.5C703.7 562.46 700.25 556.3 695.5 553.9ZM826.5 554.07C818.04 559.55 809.57 565.02 801.11 570.5C802.9 572.35 804.7 574.2 806.5 576.05C815.02 573.3 826.81 566.11 833.85 560.5C831.4 558.36 828.95 556.21 826.5 554.07ZM249.5 554.72C240.38 562.65 231.26 570.57 222.13 578.5C226.26 580.96 230.38 583.43 234.5 585.89C242.76 577.76 251.02 569.63 259.28 561.5C256.02 559.24 252.76 556.98 249.5 554.72ZM858.5 555.79C855.54 558.02 852.57 560.26 849.61 562.5C857.9 570.43 866.2 578.35 874.5 586.28C878.24 584.02 881.98 581.76 885.72 579.5C876.64 571.6 867.57 563.69 858.5 555.79ZM359.5 556.74C353.18 563.66 346.87 570.58 340.55 577.5C349.53 581.67 358.52 585.83 367.5 590C374.04 585.3 381.03 577.48 385.09 570.5C376.56 565.91 368.03 561.32 359.5 556.74ZM750.5 557.02C745.02 559.44 739.74 562.31 734.21 564.68C730.53 566.26 726 567.51 723.34 570.5C729.39 576.77 735.45 583.04 741.5 589.31C750.59 585.37 759.69 581.44 768.78 577.5C762.69 570.67 756.59 563.84 750.5 557.02ZM267.5 567.19C259.37 574.96 251.25 582.73 243.12 590.5C248.14 595.03 269.63 604.48 276.5 606.16C283.11 598.61 289.72 591.05 296.33 583.5C286.72 578.06 277.11 572.63 267.5 567.19ZM841.5 567.85C832.32 573.06 823.13 578.28 813.95 583.5C820.8 590.88 827.65 598.26 834.5 605.64C841.68 602.82 848.76 599.62 855.66 596.16C858.88 594.55 862.67 593.23 864.88 590.5C857.09 582.95 849.29 575.4 841.5 567.85ZM393.5 575.22C389.08 581.65 384.67 588.07 380.25 594.5C388 598.6 396.95 599.21 405.5 600.21C407.54 594.97 409.58 589.74 411.62 584.5C405.58 581.41 399.54 578.32 393.5 575.22ZM713.5 575.17C707.18 578.28 700.86 581.39 694.54 584.5C696.52 589.71 698.51 594.92 700.5 600.13C708.94 602.07 720.18 597.93 727.91 594.5C724.69 587.77 720.01 579.17 713.5 575.17ZM318.5 576.27C316.92 577.68 315.33 579.09 313.75 580.5C316.66 581.86 319.58 583.23 322.5 584.59C323.69 583.23 324.88 581.86 326.07 580.5C323.55 579.09 321.02 577.68 318.5 576.27ZM791.5 575.62C788.75 576.91 786 578.21 783.25 579.5C784.66 581.22 786.08 582.94 787.5 584.66C790.6 583.27 793.71 581.89 796.81 580.5C795.04 578.87 793.27 577.25 791.5 575.62ZM334.5 584.18C333.48 585.29 332.47 586.39 331.45 587.5C335.79 591.2 354.94 596.33 360.4 595.5C351.76 591.73 343.13 587.95 334.5 584.18ZM778.32 587.5C777.3 586.28 776.19 584.23 774.47 584.05C772.05 583.8 768.18 586.52 766.04 587.54C760 590.43 753.55 592.41 747.63 595.5C752.91 596.45 773.84 590.82 778.32 587.5ZM214.5 585.71C210.71 589.31 206.92 592.9 203.13 596.5C207.92 598.92 212.71 601.35 217.5 603.77C220.64 600.35 223.77 596.92 226.91 593.5C222.77 590.9 218.64 588.31 214.5 585.71ZM893.5 586.45C889.32 588.8 885.14 591.15 880.97 593.5C884.48 597.05 887.99 600.6 891.5 604.15C895.75 601.93 899.99 599.72 904.24 597.5C900.66 593.82 897.08 590.13 893.5 586.45ZM306.5 588.17C299.69 595.28 292.89 602.39 286.08 609.5C289.89 611.09 293.69 612.67 297.5 614.26C303.59 607 309.69 599.75 315.78 592.5C312.69 591.06 309.59 589.61 306.5 588.17ZM804.5 588.09C800.95 589.56 797.4 591.03 793.85 592.5C800.07 599.67 806.28 606.84 812.5 614.01C816.39 612.51 820.28 611 824.18 609.5C817.62 602.36 811.06 595.23 804.5 588.09ZM421.5 588.54C419.5 593.52 417.5 598.51 415.5 603.49C420.87 604.83 426.24 606.16 431.6 607.5C430.83 602.24 425.88 591.61 421.5 588.54ZM684.5 588.87C681.33 595.08 678.17 601.29 675 607.5C680.34 606.17 685.68 604.83 691.02 603.5C688.84 598.62 686.67 593.75 684.5 588.87ZM325.5 595.59C319.4 602.9 313.31 610.2 307.21 617.5C316.64 620.3 326.07 623.11 335.5 625.91C341.79 618.78 348.07 611.64 354.36 604.5C344.74 601.53 335.12 598.56 325.5 595.59ZM784.5 595.73C774.9 598.66 765.3 601.58 755.7 604.5C761.63 611.54 767.57 618.58 773.5 625.62C783.09 622.92 792.68 620.21 802.26 617.5C796.34 610.24 790.42 602.99 784.5 595.73ZM235.5 598.06C232.33 601.54 229.15 605.02 225.98 608.5C235.41 614.48 250.75 620.89 261.5 624.01C264.25 620.84 267 617.67 269.76 614.5C258.34 609.02 246.92 603.54 235.5 598.06ZM872.5 598.31C861.99 603.38 851.48 608.44 840.98 613.5C843.48 616.66 845.99 619.82 848.5 622.99C855.13 622.15 876.52 612.51 882.26 608.5C879.01 605.1 875.75 601.71 872.5 598.31ZM195.5 604.11C175.11 624.91 154.73 645.7 134.34 666.5C162.06 673.17 189.78 679.83 217.5 686.5C220.23 682.5 222.96 678.5 225.69 674.5C221.89 671.3 214.52 671.02 209.68 669.74C200.26 667.26 190.84 664.74 181.45 662.11C177.09 660.89 172.59 660.14 168.36 658.5C182.02 643.17 195.68 627.83 209.35 612.5C204.73 609.7 200.12 606.91 195.5 604.11ZM912.5 604.66C907.98 607.27 903.45 609.89 898.93 612.5C912.97 627.83 927.02 643.17 941.06 658.5C922.28 663.83 903.49 669.17 884.7 674.5C887.22 678.5 889.74 682.5 892.26 686.5C919.28 679.83 946.3 673.17 973.31 666.5C953.04 645.89 932.77 625.27 912.5 604.66ZM401.89 610.5C392.33 609.5 382.78 608.5 373.22 607.5C368.93 615.17 364.64 622.83 360.35 630.5C366.27 633.15 384.36 635.82 390.5 634.55C394.92 626.62 401.03 619.85 401.89 610.5ZM745.5 607.15C745.57 612.14 753.42 624.68 756.5 629.28C758.63 628.68 760.76 628.09 762.89 627.5C757.09 620.72 751.3 613.93 745.5 607.15ZM735.5 607.97C729.03 608.01 710.38 609.39 704.91 611.5C706.28 618.9 713.56 630.08 718.5 635.88C725.02 635.43 742.07 633.65 747.15 630.5C743.27 622.99 739.38 615.48 735.5 607.97ZM360.5 610.72C355.61 616.31 350.71 621.91 345.82 627.5C347.39 628.47 349.23 629.58 351.25 628.75C352.56 628.22 353.41 625.71 354.05 624.56C356.34 620.41 360.53 615.29 360.5 610.72ZM411.5 613.07C409.1 621.02 406.7 628.96 404.3 636.91C412.7 636.91 421.1 636.91 429.5 636.91C430.17 630.42 430.83 623.93 431.5 617.44C424.83 615.98 418.17 614.53 411.5 613.07ZM694.5 613.29C687.78 614.69 681.05 616.1 674.33 617.5C673.46 624.16 674.59 632.56 676.5 639C684.73 639.5 694.97 640.28 702.78 637.5C700.98 630 699.32 619.43 694.5 613.29ZM254.6 632.5C242.56 627.17 230.52 621.83 218.48 616.5C207.7 628.5 196.92 640.5 186.14 652.5C189.36 655.38 195.95 656.13 200.34 657.27C210.67 659.96 220.96 663.43 231.5 665.18C239.2 654.28 246.9 643.39 254.6 632.5ZM830.5 617.21C826.69 618.64 822.88 620.07 819.07 621.5C821.55 624.74 824.02 627.98 826.5 631.21C830.53 629.64 834.55 628.07 838.58 626.5C835.89 623.4 833.19 620.31 830.5 617.21ZM889.5 616.67C878.31 621.62 867.13 626.56 855.94 631.5C863.46 642.69 870.98 653.88 878.5 665.08C893.26 661.22 908.03 657.36 922.79 653.5C911.69 641.22 900.6 628.95 889.5 616.67ZM279.5 617.85C276.79 621.07 274.08 624.28 271.36 627.5C275.41 628.96 279.45 630.41 283.5 631.87C286.05 628.75 288.61 625.62 291.16 622.5C287.27 620.95 283.39 619.4 279.5 617.85ZM441.5 620.73C440.83 626.21 440.17 631.68 439.5 637.16C444.33 637.16 449.16 637.16 453.98 637.16C449.82 631.68 445.66 626.21 441.5 620.73ZM665.43 623.66C660.64 628.86 655.84 634.06 651.05 639.26C655.84 639.26 660.64 639.26 665.43 639.26C665.43 634.06 665.43 628.86 665.43 623.66ZM809.5 625.21C799.45 627.97 789.39 630.74 779.34 633.5C781.06 636.01 782.78 638.52 784.5 641.03C791.73 640.13 810.9 637.6 816.09 633.5C813.9 630.74 811.7 627.97 809.5 625.21ZM300.5 625.9C298.34 628.77 296.18 631.63 294.02 634.5C301.82 638.18 316.29 640.42 324.91 640.5C326.48 638.17 328.05 635.83 329.63 633.5C319.92 630.97 310.21 628.44 300.5 625.9ZM845.5 635.39C841.38 636.76 837.25 638.13 833.13 639.5C840.25 649.98 847.38 660.46 854.5 670.94C859.03 669.79 863.56 668.65 868.09 667.5C860.56 656.8 853.03 646.09 845.5 635.39ZM277.6 640.5C273.41 639.17 269.22 637.83 265.03 636.5C257.59 646.83 250.15 657.17 242.7 667.5C247.57 668.5 252.43 669.5 257.3 670.5C264.07 660.5 270.83 650.5 277.6 640.5ZM339.5 636.54C338.14 638.45 336.77 640.36 335.41 642.26C338.11 642.26 340.8 642.26 343.5 642.26C344.41 640.36 345.33 638.45 346.24 636.54C343.99 636.54 341.75 636.54 339.5 636.54ZM768.5 635.85C766.1 636.4 763.7 636.95 761.3 637.5C762.03 639.49 762.77 641.49 763.5 643.48C766.82 643.48 770.14 643.48 773.46 643.48C771.81 640.94 770.15 638.4 768.5 635.85ZM381.48 642.5C375.53 641.25 369.52 640.7 363.52 639.81C361.23 639.47 357.95 638.21 355.73 639.21C354.63 639.7 354.08 641.53 353.58 642.5C361.01 644.61 373.68 643.63 381.48 642.5ZM751.5 639.19C742 640.63 732.5 642.06 723 643.5C729.51 644.72 747.45 645.81 753.5 643.84C752.83 642.29 752.17 640.74 751.5 639.19ZM823.5 642.67C812.37 645.28 801.24 647.89 790.1 650.5C795.33 659.83 800.56 669.17 805.8 678.5C812.27 679.03 819.13 677.25 825.55 676.24C831.59 675.29 838.64 675.02 844.2 672.5C837.3 662.56 830.4 652.62 823.5 642.67ZM287.5 643.34C280.81 653.06 274.11 662.78 267.42 672.5C279.11 674.24 290.81 675.98 302.5 677.72C307.95 668.31 313.4 658.91 318.85 649.5C308.4 647.45 297.95 645.4 287.5 643.34ZM428.5 647.2C421.57 643.94 408.58 647.15 401.33 649.5C399.39 657.97 397.44 666.43 395.5 674.9C398.51 676.03 402.33 674.79 405.58 674.32C412.1 673.36 419.28 673.19 425.5 671.05C426.5 663.1 427.5 655.15 428.5 647.2ZM438.5 646.78C437.63 654.36 436.76 661.93 435.9 669.5C443.01 667.95 450.13 666.4 457.24 664.84C457.24 658.82 457.24 652.8 457.24 646.78C450.99 646.78 444.75 646.78 438.5 646.78ZM706.27 651.5C697.69 646.8 686.87 648.4 677.5 648.9C676.52 657.84 678.56 668.02 681.5 676.53C691.51 677.52 701.52 678.51 711.53 679.5C709.78 670.17 708.02 660.83 706.27 651.5ZM466.5 649.44C467.23 654.07 466.22 659.4 468.3 663.5C473.15 662.17 478.01 660.83 482.86 659.5C477.75 656.49 472.11 650.59 466.5 649.44ZM647.5 649C646.5 655.93 645.5 662.86 644.5 669.8C652.49 671.83 661.24 674.95 669.5 674.53C668.8 666.02 668.1 657.51 667.4 649C660.77 649 654.13 649 647.5 649ZM338.5 652.33C335.59 650.93 332.79 651.08 329.55 651.5C325.16 657.82 315.39 671.7 314.36 678.81C318.07 678.81 321.79 678.81 325.5 678.81C329.83 669.99 334.17 661.16 338.5 652.33ZM380.81 651.71C370.05 651.71 359.28 651.71 348.51 651.71C344.19 660.64 339.88 669.57 335.56 678.5C344.33 680.41 359.04 679.28 367.98 677.5C372.25 668.9 376.53 660.3 380.81 651.71ZM391.5 651.21C387.15 659.72 382.8 668.24 378.44 676.75C380.86 676.75 383.28 676.75 385.7 676.75C387.63 668.24 389.57 659.72 391.5 651.21ZM636.5 651.19C629.26 655.63 622.01 660.06 614.77 664.5C621.35 665.91 627.92 667.32 634.5 668.73C635.17 662.89 635.83 657.04 636.5 651.19ZM715.5 651.8C717.27 661.29 719.04 670.79 720.81 680.29C723.77 680.29 726.73 680.29 729.69 680.29C729.21 673.41 723.66 666.15 720.49 660.01C718.98 657.07 717.81 654.07 715.5 651.8ZM757.92 653.5C750.83 652.94 743.62 653.24 736.5 652.93C733.41 652.79 730.04 651.87 727.5 653.5C731.94 662.5 736.38 671.5 740.82 680.5C747.12 681.89 765.49 682.65 771.43 680.5C766.92 671.5 762.42 662.5 757.92 653.5ZM779.5 652.16C775.83 652.16 772.17 652.16 768.5 652.16C772.84 661.61 777.18 671.06 781.52 680.51C786.04 680.51 790.56 680.51 795.08 680.51C789.89 671.06 784.69 661.61 779.5 652.16ZM518.32 676.5C514.69 672.73 502.93 668.39 497.65 667.5C499.6 673.2 501.55 678.89 503.5 684.59C508.21 682.57 515.05 680.23 518.32 676.5ZM487.5 669.43C481.17 670.66 474.83 671.89 468.5 673.12C467.59 679.57 468.56 693.86 472.5 699.09C479.5 695.75 486.5 692.42 493.5 689.08C491.5 682.53 489.5 675.98 487.5 669.43ZM606.5 672.37C600.18 669.34 593.75 673.34 587.3 674.68C583.58 675.45 579.58 675.63 576.24 677.5C583.99 681.44 591.75 685.39 599.5 689.33C601.83 683.68 604.17 678.02 606.5 672.37ZM633.12 678.5C627.39 677.17 621.66 675.83 615.93 674.5C613.48 680.83 611.03 687.17 608.59 693.5C612.88 697 623.68 702.92 629.1 703.5C630.44 695.17 631.78 686.83 633.12 678.5ZM458.5 675.18C449.77 675.44 442.57 680.02 434.84 683.5C434.84 693.17 434.84 702.83 434.84 712.5C443.72 709.39 452.61 706.29 461.5 703.18C460.5 693.85 459.5 684.51 458.5 675.18ZM251.45 680.5C247.8 677.94 241.74 677.25 237.18 676.5C234.37 680.5 231.55 684.5 228.74 688.5C233.99 689.68 239.25 690.85 244.5 692.03C246.82 688.18 249.13 684.34 251.45 680.5ZM545.79 677.87C540.8 677.87 535.82 677.87 530.83 677.87C535.82 682.63 540.8 687.4 545.79 692.17C545.79 687.4 545.79 682.63 545.79 677.87ZM873.5 676.64C869.11 677.59 864.72 678.55 860.34 679.5C862.39 683.6 864.45 687.71 866.5 691.81C871.25 691.04 876 690.27 880.74 689.5C879.99 684.93 876.63 680.11 873.5 676.64ZM571.21 678.29C565.64 678.29 560.07 678.29 554.5 678.29C552.86 684.04 552.67 691.19 553.5 697.09C559.4 690.82 565.31 684.56 571.21 678.29ZM421.8 680.5C412.09 681.72 402.39 682.94 392.68 684.16C392.68 686.28 392.68 688.39 392.68 690.5C400.92 688.53 414.53 685.46 421.8 680.5ZM643.5 680.22C639.86 688.13 639.43 699.06 639.5 707.67C644.97 711.44 663.49 717.8 669.98 717.81C669.98 707.45 669.98 697.09 669.98 686.73C667.43 685.74 664.9 684.05 662.27 683.31C656.34 681.65 649.6 681.01 643.5 680.22ZM261.5 681.89C259.3 685.76 257.11 689.63 254.91 693.5C262.61 696.36 283.82 697.98 292.5 698.01C294.24 694.17 295.99 690.34 297.73 686.5C285.65 684.96 273.58 683.43 261.5 681.89ZM849.5 681.6C836.5 683.9 823.5 686.19 810.5 688.49C812.17 692.13 813.83 695.76 815.5 699.4C824.23 700.57 836.67 697.58 845.5 696.14C849.11 695.55 853.8 695.6 856.74 693.5C854.32 689.53 851.91 685.57 849.5 681.6ZM383.73 685.57C380.65 685.57 377.58 685.57 374.5 685.57C373.35 688.55 372.21 691.52 371.06 694.5C374.78 693.83 378.5 693.17 382.22 692.5C382.72 690.19 383.22 687.88 383.73 685.57ZM524.5 684.96C518.6 687.81 512.7 690.65 506.81 693.5C508.75 703.53 515.12 715.4 522.5 722.55C529.98 718.51 538.92 712.24 544.1 705.5C537.56 698.65 531.03 691.81 524.5 684.96ZM714.47 693.5C714.27 692.03 714.46 689.34 713.19 688.31C711.82 687.19 708.2 687.32 706.5 687.13C700.19 686.42 693.35 684.82 687.05 685.5C693.84 689.02 706.94 693.54 714.47 693.5ZM309.5 687.7C306.87 689.89 304.75 695.18 304.43 698.7C308.46 698.7 312.48 698.7 316.5 698.7C317.96 695.03 319.42 691.37 320.88 687.7C317.08 687.7 313.29 687.7 309.5 687.7ZM363.3 687.65C352.7 687.65 342.1 687.65 331.5 687.65C330.11 691.27 328.71 694.88 327.32 698.5C338.05 697.72 348.77 696.95 359.5 696.17C360.77 693.33 362.03 690.49 363.3 687.65ZM576.5 687.44C570.69 693.46 564.88 699.48 559.08 705.5C565.88 711.36 572.69 717.22 579.5 723.08C584.01 719.43 585.68 713.9 588.63 709.14C590.9 705.49 593.55 702.65 595.29 698.5C592.76 696.55 590.81 695.39 587.66 695.43C587.66 697.45 587.66 699.48 587.66 701.5C584.51 695.77 582.29 691.1 576.5 687.44ZM421.5 689.23C410.86 692.98 400.22 696.74 389.58 700.5C388.01 707.24 383.51 721.68 384.5 727.84C394.17 725.1 403.83 722.35 413.5 719.6C416.17 709.48 418.83 699.35 421.5 689.23ZM734.5 689.19C730.65 689.19 726.79 689.19 722.94 689.19C723.46 691.44 723.98 693.68 724.5 695.93C728.82 696.45 733.14 696.98 737.46 697.5C736.47 694.73 735.49 691.96 734.5 689.19ZM799.5 689.42C795.02 689.42 790.54 689.42 786.06 689.42C787.54 693.2 789.02 696.99 790.5 700.77C794.99 700.77 799.48 700.77 803.97 700.77C802.48 696.99 800.99 693.2 799.5 689.42ZM775.5 690.24C765.4 690.24 755.3 690.24 745.19 690.24C746.3 693.14 747.4 696.03 748.5 698.93C758.97 699.45 769.44 699.98 779.91 700.5C778.44 697.08 776.97 693.66 775.5 690.24ZM685.5 693.86C687.83 704.19 690.17 714.51 692.5 724.84C702.26 727.39 712.02 729.95 721.78 732.5C720.02 722.75 718.26 713.01 716.5 703.26C706.17 700.13 695.83 696.99 685.5 693.86ZM238.76 701.5C233.58 700.5 228.41 699.5 223.24 698.5C216.89 706.14 212.9 715.81 207.79 724.29C198.35 739.96 189.25 756.19 180.94 772.5C188.86 774.5 208.5 771.91 217.5 771.19C234.41 769.83 251.7 770.45 268.5 768.14C269.68 763.6 270.86 759.05 272.05 754.5C267.24 754.07 262.34 754.79 257.5 754.97C248.17 755.3 238.83 755.49 229.5 755.82C223.69 756.02 216.62 757.21 211.15 755.5C220.35 737.5 229.56 719.5 238.76 701.5ZM497.5 698.05C489.68 700.85 482.2 705.77 476.2 711.5C479.63 721.78 483.07 732.06 486.5 742.34C492.13 740.76 507.44 732.65 511.38 728.5C506.76 718.35 502.13 708.2 497.5 698.05ZM886.5 698.36C881.83 699.49 877.17 700.62 872.5 701.76C873.45 706.24 876.58 710.64 878.64 714.83C883.36 724.42 888.18 733.96 892.95 743.53C894.98 747.6 898.13 751.9 898.53 756.4C877.43 756.4 856.32 756.4 835.22 756.4C836.28 760.77 837.35 765.13 838.41 769.5C844.68 770.37 851.17 770.07 857.5 770.32C870.5 770.85 883.5 771.4 896.5 771.94C905.56 772.31 918.42 774.72 926.93 772.5C913.45 747.79 899.98 723.07 886.5 698.36ZM379.94 702.5C375.74 703.17 371.54 703.83 367.34 704.5C363.62 712.98 360.23 723.62 359.5 732.86C364.17 732.06 368.83 731.26 373.5 730.46C375.65 721.14 377.79 711.82 379.94 702.5ZM249.5 703.25C242.07 717.33 234.64 731.42 227.21 745.5C232.11 747.07 238.27 746.16 243.5 746.02C253.93 745.75 265.28 746.31 275.55 744.5C279.86 732.39 284.18 720.27 288.5 708.16C275.5 706.52 262.5 704.89 249.5 703.25ZM603.5 703.1C598.74 711.96 593.37 720.74 590.68 730.5C598.95 735.55 607.23 740.59 615.5 745.64C619.09 735.59 622.68 725.55 626.27 715.5C622.89 711.86 608.3 703.97 603.5 703.1ZM862.5 704.02C848.22 705.85 833.93 707.67 819.65 709.5C823.84 721.99 828.02 734.48 832.21 746.97C849.27 746.97 866.33 746.97 883.38 746.97C876.42 732.65 869.46 718.34 862.5 704.02ZM678.5 704.71C678.09 707.75 676.76 717.84 678.07 720.33C678.67 721.45 680.42 721.69 681.5 722.06C682.65 716.88 680.44 709.77 678.5 704.71ZM356.14 706.5C345.26 707.08 334.38 707.65 323.5 708.23C319.8 714.5 312.54 734.55 312.46 741.5C324.47 739.44 336.49 737.37 348.5 735.31C351.05 725.7 353.59 716.1 356.14 706.5ZM425.5 705.9C424.83 709.31 424.17 712.71 423.5 716.11C424.49 715.72 424.35 716.33 425.22 715.74C427.47 714.23 426.07 707.85 425.5 705.9ZM726.5 706.46C728.5 716.04 730.5 725.63 732.5 735.21C737.65 735.97 742.8 736.74 747.95 737.5C746.49 727.97 744.81 716.71 740.5 708.03C735.83 707.51 731.17 706.98 726.5 706.46ZM299.5 708.21C295.26 719.88 291.02 731.54 286.77 743.21C291.68 743.21 296.59 743.21 301.5 743.21C305.22 731.54 308.94 719.88 312.67 708.21C308.28 708.21 303.89 708.21 299.5 708.21ZM784.5 711.07C773.56 710.55 762.63 710.02 751.69 709.5C753.96 719.55 756.23 729.59 758.5 739.64C766.6 741.81 775.16 742.23 783.47 743.26C787.18 743.72 791.99 745.13 795.5 743.98C791.83 733.01 788.17 722.04 784.5 711.07ZM808.5 710.22C804.07 710.22 799.65 710.22 795.22 710.22C795.36 715.56 798 720.58 799.79 725.66C802.12 732.28 803.47 739.48 806.5 745.78C811.32 745.78 816.14 745.78 820.97 745.78C818.78 736.63 813.53 717.68 808.5 710.22ZM461.5 712.43C454.85 712.82 447.79 716.75 441.41 718.86C439.68 719.43 435.98 719.88 435.05 721.66C433.97 723.75 434.89 726.13 435.5 728.08C444.17 722.86 452.83 717.65 461.5 712.43ZM551.5 712.24C544.35 718.66 537.2 725.08 530.05 731.5C537.53 739.8 545.02 748.1 552.5 756.4C559.55 748.43 566.6 740.47 573.65 732.5C566.27 725.75 558.88 718.99 551.5 712.24ZM462.5 721.1C453.43 726.56 444.36 732.03 435.29 737.5C436.03 747.31 436.76 757.12 437.5 766.93C446.81 762.45 456.11 757.98 465.42 753.5C464.44 742.7 463.47 731.9 462.5 721.1ZM668.66 731.5C668.75 730.12 669.28 728.22 668.45 726.97C667.77 725.96 665.42 725.63 664.33 725.25C660.15 723.79 654.56 720.95 650.36 721.5C656.46 724.83 662.56 728.17 668.66 731.5ZM426.07 725.02C424.55 725.02 423.02 725.02 421.5 725.02C420.83 728.48 420.17 731.94 419.5 735.4C421.69 734.43 423.88 733.47 426.07 732.5C426.07 730.01 426.07 727.51 426.07 725.02ZM638.5 723.95C637.66 734.8 636.82 745.65 635.97 756.5C645.15 761.39 654.32 766.28 663.5 771.17C664.88 761.28 666.27 751.39 667.65 741.5C657.93 735.65 648.22 729.8 638.5 723.95ZM411.5 729.49C401.83 732.17 392.17 734.86 382.5 737.54C381.82 741.86 381.14 746.18 380.46 750.5C389.98 747.97 400.99 744.83 409.32 739.5C410.04 736.16 410.77 732.83 411.5 729.49ZM478.76 746.5C476.67 740.83 474.58 735.17 472.48 729.5C471.95 734.36 472.14 744.93 474.5 749.04C475.92 748.19 477.34 747.35 478.76 746.5ZM677.22 729.94C677.22 732.06 677.22 734.18 677.22 736.29C679.66 737.43 682.1 738.57 684.53 739.7C684.53 736.97 684.53 734.23 684.53 731.5C682.1 730.98 679.66 730.46 677.22 729.94ZM629.5 733.82C627.41 737.35 626.21 741.44 624.73 745.27C624.23 746.56 622.86 748.59 623.59 749.96C624.26 751.22 626.33 751.71 627.5 752.22C628.17 746.08 628.83 739.95 629.5 733.82ZM694.71 734.99C694.71 738.16 694.71 741.33 694.71 744.5C704.64 747.79 714.57 751.08 724.5 754.37C725.3 750.3 724.64 746.69 723.5 742.69C713.9 740.12 704.31 737.55 694.71 734.99ZM511.5 737.88C504.29 742.08 497.09 746.29 489.88 750.5C490.75 752.38 491.63 754.26 492.5 756.14C498.83 750.05 505.17 743.96 511.5 737.88ZM372.16 740.5C367.27 741.38 362.39 742.26 357.5 743.14C356.71 747.59 355.92 752.05 355.14 756.5C359.92 755.46 364.71 754.43 369.5 753.39C370.39 749.09 371.27 744.8 372.16 740.5ZM426.5 742.29C423.65 743.7 420.8 745.1 417.95 746.5C416.58 755.84 415.09 767.13 417.5 776.32C421.12 774.72 424.75 773.11 428.37 771.5C427.75 761.76 427.12 752.03 426.5 742.29ZM528.5 742.88C528.65 747.64 537.66 763.68 541.5 766.74C542.89 765.32 544.28 763.91 545.67 762.5C539.95 755.96 534.22 749.42 528.5 742.88ZM585.5 743.28C580.01 753.35 574.52 763.43 569.03 773.5C576.85 780.61 584.68 787.73 592.5 794.84C597.39 784.73 602.27 774.61 607.16 764.5C599.94 757.43 592.72 750.35 585.5 743.28ZM518.5 744.01C511.03 750.84 503.56 757.67 496.09 764.5C497.98 772.12 505.49 788.3 510.5 794.27C518.4 787.35 526.3 780.42 534.19 773.5C528.96 763.67 523.73 753.84 518.5 744.01ZM346.76 745.5C334.3 747.5 321.83 749.5 309.37 751.5C308.08 755.95 306.79 760.39 305.5 764.84C315 765.38 335.11 761.7 344.5 758.92C345.25 754.45 346.01 749.97 346.76 745.5ZM750.41 748.33C744.81 747.39 739.22 746.44 733.62 745.5C734.25 749.35 734.87 753.19 735.5 757.04C740.47 758.19 745.44 759.35 750.41 760.5C750.41 756.44 750.41 752.39 750.41 748.33ZM676.5 746.17C675.32 755.95 674.14 765.72 672.96 775.5C677.14 777.37 681.32 779.25 685.5 781.12C687.64 771.41 687.41 760.28 685.86 750.5C682.74 749.06 679.62 747.61 676.5 746.17ZM572.5 746.68C567.85 751.96 563.21 757.23 558.56 762.5C559.86 763.83 561.15 765.17 562.45 766.5C565.81 762.29 572.57 751.71 572.5 746.68ZM603.5 748.61C604.34 751.49 608.4 755.5 611.58 755.5C610.96 751.86 606.73 750.42 603.5 748.61ZM760.74 750C760.74 753.89 760.74 757.78 760.74 761.68C769.2 764.71 791.72 767.58 800.88 767.5C802.18 764.09 799.65 757.89 798.26 754.5C785.75 753 773.25 751.5 760.74 750ZM407.45 750.78C397.8 754.33 388.15 757.89 378.5 761.44C377.03 769.43 374.54 787.27 376.5 794.68C386.82 789.96 397.13 785.23 407.45 780.5C407.45 770.59 407.45 760.69 407.45 750.78ZM298.5 753.14C293.5 753.14 288.5 753.14 283.5 753.14C282.17 757.77 280.83 762.41 279.5 767.05C284.5 767.05 289.5 767.05 294.5 767.05C295.83 762.41 297.17 757.77 298.5 753.14ZM481.5 754.66C479.83 755.63 478.17 756.61 476.5 757.58C476.03 761.2 476.38 764.49 478.5 767.39C480.5 765.76 482.51 764.13 484.51 762.5C483.51 759.89 482.5 757.27 481.5 754.66ZM696.23 755.35C696.23 765.4 696.23 775.45 696.23 785.5C696.34 785.67 695.72 785.66 695.73 785.86C695.77 786.26 703.51 789.39 704.61 789.85C712.19 793.01 720.4 797.39 728.5 798.64C727.83 787.51 727.17 776.38 726.5 765.26C716.41 761.95 706.32 758.65 696.23 755.35ZM823.5 755.33C818.66 755.33 813.83 755.33 808.99 755.33C810.15 759.82 811.31 764.31 812.48 768.79C817.35 768.79 822.23 768.79 827.11 768.79C825.9 764.31 824.7 759.82 823.5 755.33ZM625.18 761.77C623.29 760.68 621.39 759.59 619.5 758.5C619.13 759.83 618.76 761.17 618.39 762.5C620.65 763.97 622.92 765.44 625.18 766.91C625.18 765.2 625.18 763.48 625.18 761.77ZM466.5 762.64C457.46 767.26 448.43 771.88 439.39 776.5C439.08 781.2 439.79 787.58 442.5 791.38C451.48 785.42 460.45 779.46 469.43 773.5C468.45 769.88 467.48 766.26 466.5 762.64ZM368.5 764C363.61 765.16 358.73 766.33 353.84 767.5C351.78 776.79 350.08 794.5 351.5 803.77C356.36 802.02 361.22 800.26 366.07 798.5C366.88 787 367.69 775.5 368.5 764ZM634.5 766.42C633.98 768.78 633.47 771.14 632.95 773.5C639.97 779.96 651.67 787.84 660.5 791.36C661.14 788.08 661.78 784.79 662.42 781.5C653.11 776.47 643.81 771.45 634.5 766.42ZM751.56 770.5C746.77 769.5 741.98 768.5 737.19 767.5C737.72 779.17 738.25 790.83 738.78 802.5C743.69 804.2 748.59 805.89 753.5 807.59C754.68 800.15 753.59 792.02 753.2 784.5C752.96 779.79 753.22 774.91 751.56 770.5ZM343.14 769.5C329.87 771.5 316.59 773.5 303.31 775.5C300.04 791.55 296.77 807.59 293.5 823.64C309.35 818.26 325.2 812.88 341.05 807.5C341.75 794.83 342.44 782.17 343.14 769.5ZM552.5 769.29C550.55 771.03 548.6 772.76 546.66 774.5C548.27 776.93 549.89 779.36 551.5 781.79C553.37 779.36 555.24 776.93 557.11 774.5C555.57 772.76 554.04 771.03 552.5 769.29ZM488.5 771.13C485.82 773.25 483.13 775.38 480.45 777.5C483.1 788.1 487.65 797.98 492.5 807.72C495.95 805.31 499.4 802.91 502.85 800.5C498.06 790.71 493.28 780.92 488.5 771.13ZM614.5 771.27C609.56 781.35 604.63 791.42 599.69 801.5C602.63 804.09 605.56 806.67 608.5 809.26C613.8 804.12 620.11 785.08 621.97 777.5C619.48 775.42 616.99 773.35 614.5 771.27ZM803.5 777.87C794.88 776.56 786.14 776 777.5 774.85C772.51 774.19 767.38 772.63 762.52 773.5C763.18 785.95 763.84 798.4 764.5 810.85C780.5 815.45 796.5 820.04 812.5 824.64C812.48 815.42 809 802.76 807.2 793.46C806.22 788.34 805.89 782.5 803.5 777.87ZM292.5 777.4C287.41 776.47 281.67 776.93 276.69 778.5C270.63 807.04 264.56 835.58 258.5 864.11C286.12 854.74 313.74 845.36 341.36 835.99C341.36 830.04 341.36 824.08 341.36 818.13C321.41 824.9 301.45 831.67 281.5 838.44C280.69 832.65 282.94 826.32 283.99 820.5C286.58 806.08 289.78 791.79 292.5 777.4ZM814.5 779.15C818.03 798.93 821.55 818.72 825.08 838.5C804.59 832.72 784.11 826.94 763.62 821.17C763.62 826.03 763.62 830.9 763.62 835.76C791.58 845.27 819.54 854.78 847.5 864.29C848.61 857.33 844.42 846.76 842.95 839.5C840.45 827.14 837.73 814.82 835.02 802.5C833.32 794.77 832.23 786.57 829.5 779.15C824.5 779.15 819.5 779.15 814.5 779.15ZM430.27 781.5C426.18 783.17 422.1 784.83 418.01 786.5C418.84 791.97 419.67 797.43 420.5 802.9C424.61 800.76 428.72 798.63 432.84 796.5C431.98 791.5 431.12 786.5 430.27 781.5ZM539.5 781.2C531.4 788.3 523.3 795.4 515.2 802.5C517.63 806.76 520.07 811.01 522.5 815.27C529.4 810.96 541.47 796.7 545.6 789.5C543.56 786.73 541.53 783.96 539.5 781.2ZM564.5 781.71C562.45 784.31 560.4 786.9 558.35 789.5C563.18 798.05 573.13 807.6 580.5 814.15C582.69 810.6 584.89 807.05 587.08 803.5C579.55 796.24 572.03 788.97 564.5 781.71ZM471.5 783.57C462.41 789.55 453.31 795.52 444.22 801.5C444.87 809.05 447.61 816.41 449.75 823.66C451.03 828 451.86 832.8 454.5 836.43C464.53 829.12 474.57 821.81 484.6 814.5C480.23 804.19 475.87 793.88 471.5 783.57ZM630.5 783.84C626 794.39 621.49 804.95 616.99 815.5C626.83 822.99 636.66 830.48 646.5 837.97C649.16 834.75 650.16 829.84 651.38 825.81C653.81 817.75 656.73 809.8 658.21 801.5C648.97 795.61 639.74 789.73 630.5 783.84ZM671.5 785.33C670.78 789.05 670.06 792.78 669.35 796.5C673.73 798.71 678.12 800.91 682.5 803.12C683.14 799.25 683.78 795.37 684.42 791.5C680.12 789.44 675.81 787.39 671.5 785.33ZM408.5 791.29C397.68 795.72 386.85 800.14 376.03 804.57C376.03 810.7 376.03 816.83 376.03 822.96C383.62 821.72 404.29 811.95 411.01 807.5C410.17 802.1 409.34 796.7 408.5 791.29ZM694.5 795.62C693.64 799.58 692.79 803.54 691.93 807.5C698.98 812.23 708.22 815.17 716.06 818.46C720.23 820.21 724.31 822.54 728.77 822.54C728.77 818.19 728.77 813.85 728.77 809.5C717.34 804.87 705.92 800.24 694.5 795.62ZM552.5 797.87C544.65 806.41 536.81 814.96 528.96 823.5C531.44 831.6 545.23 846.86 551.5 853.23C558.06 849.12 564.57 838.16 569.27 831.75C571.54 828.67 573.93 826.19 575.09 822.5C567.56 814.29 560.03 806.08 552.5 797.87ZM667.5 806.3C663.5 818.7 659.5 831.1 655.5 843.5C659.83 846.39 664.17 849.28 668.5 852.17C671.06 848.59 671.84 843.78 673.14 839.56C675.8 830.96 678.55 822.35 680.24 813.5C675.99 811.1 671.75 808.7 667.5 806.3ZM435.5 806.84C431.23 809.06 426.97 811.28 422.7 813.5C424.16 822.39 428.77 843.29 433.5 850.4C437.62 847.43 441.74 844.47 445.86 841.5C442.4 829.95 438.95 818.39 435.5 806.84ZM366.74 809.33C361.6 811.06 356.45 812.78 351.31 814.5C351.31 820.5 351.31 826.5 351.31 832.5C356.45 830.5 361.6 828.5 366.74 826.5C366.74 820.78 366.74 815.06 366.74 809.33ZM507.5 808.64C504.3 811.26 501.1 813.88 497.9 816.5C500.77 821.01 503.63 825.51 506.5 830.02C509.59 827.18 512.68 824.34 515.76 821.5C513.01 817.21 510.25 812.92 507.5 808.64ZM594.5 809.98C592.31 813.82 590.12 817.66 587.94 821.5C591.12 824.25 594.31 827 597.5 829.75C599.72 826 601.94 822.25 604.16 818.5C600.94 815.66 597.72 812.82 594.5 809.98ZM753.43 818.15C749.17 815.76 743.19 813.42 738.33 813.5C738.33 817.83 738.33 822.17 738.33 826.5C743.37 828.37 748.4 830.25 753.43 832.12C753.43 827.47 753.43 822.81 753.43 818.15ZM412.5 817.97C400.7 823.48 388.91 828.99 377.11 834.5C378.91 850.58 380.7 866.66 382.5 882.74C396.32 874 410.15 865.25 423.97 856.5C422.36 847.85 418.59 839.61 416.48 831.05C415.44 826.84 415.16 821.22 412.5 817.97ZM690.5 817.7C686.38 830.96 682.26 844.23 678.14 857.5C692.6 866.17 707.06 874.83 721.52 883.5C723.52 867 725.51 850.5 727.5 833.99C715.17 828.56 702.83 823.13 690.5 817.7ZM489.5 822.85C478.99 830.4 468.49 837.95 457.98 845.5C458.82 851.01 461.54 858.4 465.3 862.5C473.17 858.12 480.43 851.6 487.47 845.98C491.1 843.09 495.52 840.26 498.17 836.5C495.28 831.95 492.39 827.4 489.5 822.85ZM612.5 824.43C610.19 828.12 607.89 831.81 605.58 835.5C611.35 842.88 629.2 855.09 637.5 860.63C639.4 856.26 641.3 851.88 643.2 847.5C632.97 839.81 622.73 832.12 612.5 824.43ZM582.5 829.9C574.45 840.1 566.4 850.3 558.35 860.5C561.4 864.08 564.45 867.65 567.5 871.23C571.21 868.36 573.72 863.85 576.55 860.07C581.8 853.02 586.97 845.92 591.7 838.5C588.63 835.63 585.57 832.77 582.5 829.9ZM521.5 830.56C518.39 833.21 515.28 835.85 512.17 838.5C513.37 842.2 516.12 844.99 518.32 848.22C523.42 855.7 528.64 865.06 535.5 870.98C538.68 867.48 541.85 863.99 545.03 860.5C537.18 850.52 529.34 840.54 521.5 830.56ZM367.5 838.17C362.55 839.95 357.6 841.72 352.65 843.5C351.56 854.74 354.66 872.76 355.82 884.5C356.77 894.18 357.74 903.84 358.89 913.5C359.56 919.19 359.76 925.33 361.5 930.76C385.73 915.01 409.96 899.25 434.19 883.5C431.96 877.63 429.73 871.77 427.5 865.9C410.17 877.21 392.83 888.52 375.5 899.83C372.82 895.67 373.32 888.52 372.66 883.58C371.42 874.24 370.08 864.88 369.17 855.5C368.61 849.76 368.62 843.81 367.5 838.17ZM737.5 837.63C734.83 858.44 732.17 879.24 729.5 900.04C711.17 889.01 692.83 877.97 674.5 866.93C672.74 871.79 670.97 876.64 669.21 881.5C694.31 897.83 719.4 914.16 744.5 930.48C747.19 901.49 749.87 872.49 752.56 843.5C747.54 841.54 742.52 839.59 737.5 837.63ZM599.5 844.73C591.36 855.99 583.22 867.24 575.08 878.5C586.88 891.51 598.69 904.52 610.5 917.52C618.26 901.85 626.02 886.17 633.79 870.5C622.36 861.91 610.93 853.32 599.5 844.73ZM504.5 845.67C492.83 854.56 481.17 863.45 469.5 872.34C477.17 887.55 484.83 902.76 492.5 917.97C504.38 904.81 516.25 891.66 528.13 878.5C520.25 867.56 512.38 856.62 504.5 845.67ZM449.5 851.7C445.22 854.63 440.95 857.57 436.67 860.5C438.95 866.14 441.22 871.78 443.5 877.43C447.83 874.45 452.17 871.48 456.5 868.5C454.17 862.9 451.83 857.3 449.5 851.7ZM652.5 853.26C650.51 857.67 648.52 862.09 646.52 866.5C651.06 869.5 655.6 872.5 660.14 875.5C661.92 870.9 663.71 866.3 665.5 861.7C661.17 858.89 656.83 856.07 652.5 853.26ZM551.5 868.21C548.23 871.97 544.96 875.74 541.69 879.5C544.96 883.68 548.23 887.86 551.5 892.04C554.88 887.86 558.26 883.68 561.64 879.5C558.26 875.74 554.88 871.97 551.5 868.21ZM655.79 885.5C651.34 882.5 646.89 879.5 642.44 876.5C632.8 896.3 623.15 916.1 613.5 935.9C598.83 919.58 584.17 903.25 569.5 886.93C565.95 891.12 562.39 895.31 558.84 899.5C578.39 922.69 597.95 945.88 617.5 969.08C622.32 963.99 626.63 950.25 629.78 943.32C635.2 931.4 640.64 919.49 646.11 907.6C649.38 900.48 653.88 893.09 655.79 885.5ZM460.5 878.38C456.21 881.42 451.91 884.46 447.62 887.5C454.29 906.37 464.37 924.4 473.15 942.36C476.92 950.06 482.14 963.35 487.5 969.43C506.72 946.12 525.95 922.81 545.17 899.5C541.61 895.24 538.06 890.99 534.5 886.73C519.83 903.2 505.17 919.67 490.5 936.14C480.5 916.88 470.5 897.63 460.5 878.38Z" fill="#f4f9fb" fill-rule="evenodd" stroke="#0F127C" stroke-width="0.25" stroke-linejoin="round"/></g>
<g transform="translate(554.0 541.5) scale(0.95) translate(-547.5 -547.5)"><path d="M159.5 76.65C168.21 85.37 175.61 95.39 184.4 104.09C197.98 117.53 213.06 129.33 229.56 138.98C258.95 156.16 289.93 163.66 322.47 172.07C332.41 174.64 342.52 176.53 352.46 179.1C361.14 181.34 370 184.1 378.85 185.54C394.67 188.11 410.68 189.29 426.47 192.17C442.7 195.14 458.45 199.52 474.18 204.41C478.19 205.65 490.5 211.43 493.52 211.48C495.93 211.52 498.99 208.68 500.94 207.46C506.08 204.23 511.39 201.07 516.77 198.29C536.03 188.35 555.81 180.22 576.64 174.24C648.52 153.62 727.86 159.58 795.35 192.15C811.97 200.18 828.31 209.38 843.37 220.06C848.03 223.37 852.23 227.31 856.89 230.6C862.52 234.57 868.59 236.83 873.67 241.83C877.72 245.84 881.38 250.43 883.99 255.52C885.23 257.94 885.93 260.77 887.5 262.99C890.18 266.8 893.73 270.17 896.59 273.88C901.76 280.6 906.1 287.99 910.01 295.5C924.82 323.94 934.79 370.71 936.57 402.58C937.15 412.88 935.96 423.4 933.82 433.46C930.5 449.08 925.56 460.51 927.46 477.19C928.8 488.95 933.38 499.87 937.67 510.79C943.43 525.41 949.75 539.87 956.42 554.11C959.71 561.14 963.06 568.13 966.38 575.14C967.96 578.45 970.42 582.59 969.75 586.34C969.01 590.45 965.35 594.22 962.59 597.09C951.51 608.62 942.87 608.47 929.5 614.36C926.9 627.8 934.45 628.56 935.92 638.52C937.68 650.45 928.11 655.55 920.93 662.5C927.81 671.19 933.04 684.11 923.96 693.45C919.37 698.18 913.34 699.29 907.93 702.5C911.66 712.59 915.67 722.55 915.78 733.5C915.85 741.04 914.22 748.83 911.35 755.8C900.02 783.29 868.81 792.35 841.5 790.71C832.8 790.19 824.1 789.35 815.5 787.95C811.4 787.27 806.67 785.51 802.5 785.93C793.77 786.8 780.46 798.06 775.52 805.03C770.16 812.58 768.03 821.58 765.79 830.42C760.79 850.12 758.79 870.41 755.79 890.47C749.18 934.7 735.03 977.8 715.47 1017.96C710.61 1027.93 705.32 1037.58 699.58 1047.08C697.18 1051.05 694.85 1055.72 691.5 1058.9C686.13 1049.45 682.46 1039.33 676.28 1030.24C658.79 1004.51 634.53 982.91 606.77 968.71C583.13 956.63 557.97 948.94 532.35 942.27C512.04 936.98 491.3 932.4 471.68 924.79C464 921.8 456.14 918.65 449.01 914.49C446.07 912.78 443.64 910.45 440.8 908.66C435.66 905.43 430.2 902.73 425.07 899.43C404.62 886.25 385.89 869.75 371.22 850.28C358.06 832.82 348.86 811.24 346.19 789.5C345.38 782.88 344.94 776.18 345.16 769.5C345.31 765.02 346.45 760.51 345.5 756.16C341.83 761.54 338.17 766.91 334.5 772.29C330.6 766.43 329.31 747.17 328.64 739.54C325.5 704.26 333.44 667.74 352.08 637.5C348.98 634.82 344.84 633.85 342.51 630C334.28 616.4 348.18 602.17 354.86 591.5C351.54 582.64 346.55 574.33 343.1 565.45C333.22 540.08 326.66 511.83 330.16 484.51C331.51 473.99 334.16 463.52 338.26 453.73C340.5 448.39 344.45 443.03 345.76 437.5C333.9 434.85 322.09 433.05 310.59 428.87C283.91 419.17 260.32 401.87 243.95 378.58C239.37 372.07 234.41 365.24 231.67 357.75C235.05 357.75 238.42 357.75 241.8 357.75C238.97 354.42 234.32 352.36 230.62 349.91C225.64 346.63 220.78 343.16 216.17 339.36C198.74 324.97 184.36 307.17 174.88 286.59C171.7 279.68 168.31 272.58 167.14 265.02C170.96 265.02 174.77 265.02 178.59 265.02C175.81 260.73 171.89 256.89 168.6 252.87C164.22 247.5 160.22 241.79 156.61 235.87C143.56 214.5 135.9 190.46 132.58 165.74C131.46 157.39 130.83 148.93 130.97 140.5C131.02 136.96 130.63 132.75 132.5 129.94C137.83 133.54 143.17 137.15 148.5 140.75C149.67 134.97 147.17 127.62 147.01 121.5C146.64 107.51 149.94 87.54 159.5 76.65ZM365.5 204.55C356.05 202.78 346.8 200.36 337.43 198.24C298.5 189.46 259.48 179.48 224.13 160.39C212.1 153.9 200.62 146.15 190.11 137.41C184.46 132.72 179.44 126.67 173.45 122.5C174.17 136.88 181.69 151.69 188.34 164.19C228.36 239.39 321.46 244.49 395.57 256.5C394.61 253.9 392.24 252.43 390.3 250.24C385.89 245.27 381.59 240.02 378.09 234.37C374.64 228.78 371.55 222.36 369.42 216.14C368.09 212.27 367.55 208.07 365.5 204.55ZM156.5 174.54C156.25 185.64 163.52 200.28 168.21 210.32C189.35 255.57 233.21 283.49 280.48 295.05C290.42 297.48 312.07 303.31 321.42 302.5C308.34 294.31 297.69 285.5 288.51 272.97C285.53 268.9 282.82 264.48 280.45 260.04C279.32 257.93 278.29 254.54 276.36 253.06C273.45 250.84 262.08 248.01 257.95 246.53C246.1 242.26 234.69 236.86 223.58 230.94C206.01 221.57 189.64 208.99 175.53 194.98C168.91 188.41 162.97 181.24 156.5 174.54ZM789.04 214.5C783.18 209.49 773.95 206.46 766.78 203.67C752.3 198.06 737.7 193.24 722.52 189.89C669.53 178.21 614.08 181.55 563.25 200.72C549.8 205.8 528.5 214.81 517.3 223.5C521.26 227.08 526.39 229.6 530.71 232.79C535.62 236.42 540.26 240.62 544.71 244.8C564.26 263.22 578.28 288.32 583.92 314.52C585.96 323.98 586.97 333.78 586.58 343.46C586.36 349 584.19 355.75 585.5 360.87C591 356.4 596.9 352.43 602.32 347.85C612.22 339.48 621.51 330.33 630.46 320.95C655.17 295.05 677.92 267.55 708.02 247.52C725.32 236.01 743.89 226.58 763.73 220.29C772.03 217.66 780.67 216.69 789.04 214.5ZM510.5 435.31C550.4 411.31 571.44 360.13 561.62 314.74C557.25 294.56 545.8 275.73 531.16 261.34C504.57 235.21 468.16 222.93 432.63 214.73C422.3 212.34 411.93 210.78 401.5 208.93C395.9 207.94 390.18 206.73 384.49 206.5C386.36 220.52 401.45 236.81 412.27 245.23C426.99 256.67 444.23 263.12 460.37 272.11C474.66 280.06 487.4 289.85 497.8 302.5C493.92 302.49 480.84 293.78 475.91 291.59C461.03 284.96 445.67 280.15 429.54 277.76C423.89 276.92 418.03 275.2 412.52 276.5C421.85 295.33 435.56 307.57 453.79 317.67C465.87 324.37 478.07 330.01 489.31 338.17C492.77 340.68 496.82 343.17 499.5 346.52C495.02 346.07 490.75 344.36 486.39 343.22C479.16 341.32 471.88 339.54 464.63 337.74C458.92 336.33 451.71 334 446.07 335.5C455.55 359.59 477.49 373.54 500.28 383.5C491.67 385.66 481.56 382.85 472.71 382.5C474.69 387.21 478.85 390.5 482.38 394.13C487.64 399.53 492.88 405.08 497.4 411.12C500.55 415.32 503.52 419.98 505.79 424.71C507.48 428.23 508.21 432.23 510.5 435.31ZM843.39 246.5C825.8 228.4 799.79 230.5 777.46 236.9C737.5 248.35 704.56 275.24 676.19 304.69C671.11 309.97 666.37 315.52 661.39 320.88C658.26 324.24 654.59 327.56 652.23 331.5C656.64 331.5 661.18 330 665.52 329.12C676.62 326.89 687.7 324.79 698.75 322.37C737.27 313.94 777.45 303.2 810.67 281.14C823.15 272.84 838.21 261.11 843.39 246.5ZM395.22 274.5C387.98 272.65 380 272.59 372.53 271.71C358.17 270.03 343.83 268.03 329.54 265.74C319.81 264.18 310.21 261.88 300.59 259.73C295.81 258.66 290.73 256.56 285.89 256.5C300.94 282.28 333.26 303.2 361.67 310.71C370.36 313.01 379.58 314.07 388.5 315.13C396.73 316.12 414.55 318.65 421.89 316.5C407.55 303.38 401.81 292.49 395.22 274.5ZM861.5 265.04C858.1 268.12 855.65 272.52 852.45 275.96C847.15 281.65 840.98 286.63 834.72 291.23C807.54 311.18 771.73 324.19 739.35 332.73C732.69 334.49 725.89 335.73 719.23 337.5C729.77 339.95 741.69 339.73 752.5 339.99C783.3 340.71 820.17 338.89 844 316.5C857.05 304.24 870.75 283.37 861.5 265.04ZM327.5 322.44C297.83 318.28 267.83 313.54 239.74 302.7C229.74 298.84 219.94 294.22 210.67 288.84C206.61 286.48 199.87 280.96 195.66 280.5C220.31 330.77 275.88 354.27 328.46 362.25C340.49 364.07 353.44 367 365.61 366.5C358.32 360.08 350.13 355.31 343.64 347.84C339.57 343.17 335.96 337.96 332.96 332.55C331.11 329.21 329.69 325.56 327.5 322.44ZM885.5 300.33C882.03 305.02 880.08 311.32 876.92 316.38C872.96 322.71 867.52 328.48 862.09 333.57C846.66 348.02 827.55 358.14 809.66 369.13C792.52 379.65 776.06 392.11 761.66 406.16C746.45 421.01 732.37 437.51 721 455.52C707.7 476.59 696.82 498.74 679.43 516.93C666.12 530.86 650.09 541.85 632.9 550.42C625.4 554.16 617.15 556.49 609.83 560.5C610.37 568.22 614.05 576.9 609.78 584.26C608.48 586.51 606.07 587.89 603.5 588.14C594.93 588.96 590.35 580.82 587.5 574.15C579.56 575.44 569.4 580.57 563.01 585.5C566.18 605.36 586.88 636.03 610.25 631.6C614.86 630.73 616.96 627.8 620.6 625.5C623.06 631.57 624.1 638.17 626.19 644.39C631.33 659.66 637.3 674.62 646.57 687.9C675.22 728.94 731.6 746.17 777.57 758.8C802.57 765.67 837.45 775.01 863.04 769.51C883.74 765.07 898.95 747.68 894.6 725.77C893.09 718.17 889.14 711.21 884.11 705.37C882.08 703.01 879.63 701.24 878.14 698.5C878.89 687.81 893.3 687.78 901.01 684.5C905.39 682.64 909.87 678.73 907.92 673.55C901.69 657.02 889.48 665.73 877.24 668.63C870.73 670.17 863.69 670.11 857.5 667.42C858.08 657.81 868.54 658.83 875.4 656.81C883.95 654.28 890.58 647.72 898.7 644.22C904.96 641.53 910.91 641.5 917.56 641.5C917.23 637.75 914.44 634.15 913.28 630.31C910.87 622.35 911.2 614.28 913.5 606.38C903.94 602.03 894.46 614.45 884.94 607.56C876.91 601.76 878.96 587.19 887.97 583.5C887.47 588.45 883.98 595.67 888.93 599.58C893.23 602.99 903.35 595.16 908.41 593.76C912.9 592.53 917.82 592.29 922.39 593.26C924.39 593.69 926.55 595.31 928.51 595.47C934.75 595.99 946.1 587.88 948.7 582.5C938.43 560.02 927.51 537.84 918.74 514.71C913.8 501.7 908.79 489.31 907.42 475.31C906.18 462.5 909.58 450.8 911.66 438.35C912.81 431.49 913.22 424.45 913.45 417.5C914.38 389.89 908.22 362.59 900.21 336.37C896.43 323.98 892.09 311.54 885.5 300.33ZM429.22 334.5C421.3 332.96 413 333.03 404.95 332.51C391.76 331.64 378.61 330.52 365.5 328.86C356.98 327.79 341.19 322.79 333.68 324.5C347.41 343.32 369.13 363.62 392.72 368.65C403.22 370.9 414.79 370.78 425.5 371.18C434.03 371.49 444.1 373.51 452.3 371.5C440.2 360.49 435.37 349.18 429.22 334.5ZM789.94 358.5C783.15 358.78 776.33 359.77 769.5 360.06C755.53 360.66 741.41 360.23 727.5 358.78C698.95 355.81 668.97 350.71 640.68 358.28C611.14 366.18 587.18 385.19 566.97 407.5C572.7 408.21 579.78 404.54 585.63 403.27C596.67 400.87 608.21 399.57 619.5 399.23C641.2 398.57 662.77 402.34 684.5 400.9C712.82 399.03 739.75 388.45 764.37 374.87C772.82 370.21 782.91 365.14 789.94 358.5ZM480.47 414.5C476.64 408.46 471.45 404.02 466.66 398.81C464.92 396.92 463.38 393.58 461.25 392.22C458.53 390.48 453.75 390.93 450.66 390.59C440.7 389.52 430.51 389.31 420.5 389.06C389.15 388.29 357.69 387.56 326.55 383.69C313.12 382.03 299.62 379.35 286.53 375.92C280.22 374.27 273.25 370.72 266.81 370.5C273.89 381.31 285.33 390.59 296.37 397.1C344.05 425.23 389.71 415.31 441.5 412.26C449.14 411.81 456.94 411.79 464.55 412.63C469.82 413.21 475.22 414.61 480.47 414.5ZM873.16 449.5C875.3 457.52 873.68 465.93 872.5 473.91C868.53 474.8 864.57 475.69 860.6 476.59C860.6 474.86 860.6 473.14 860.6 471.41C858.02 473.52 858.34 476.29 857.9 479.5C856.24 491.9 859.47 495.79 864.24 506.5C854.89 508.73 842.73 505.37 833.48 503.06C810.41 497.28 787.36 489.72 765.41 480.5C769.57 474.52 782.23 469.65 788.89 466.39C805.26 458.35 823.31 450.56 841.5 447.99C847.41 447.15 853.53 446.72 859.5 446.93C863.17 447.06 866.72 447.93 870.27 447.5C862.5 439.79 852.97 432.83 842.08 430.47C820.34 425.77 796.54 436.32 777.63 446.14C771.32 449.42 765.04 452.82 758.9 456.42C755.66 458.32 752.23 460.96 748.6 461.5C766.64 435.95 804.98 411.96 836.5 411.02C840.15 410.92 843.83 410.92 847.46 411.3C861.38 412.78 896.08 420.48 881.82 441.31C879.5 444.69 876.1 446.8 873.16 449.5ZM728.26 412.5C722.97 412.78 717.65 415.57 712.46 416.87C702.35 419.42 691.89 421.24 681.5 421.97C653.55 423.92 625.42 419.52 597.56 423.32C567.49 427.42 540.68 440.35 514.35 454.85C487.45 469.67 460.66 486.78 444.15 513.5C449.73 513.48 458.79 508.02 464.53 506.05C478.85 501.12 493.46 497.18 508.5 495.1C536.33 491.24 564.57 492.3 592.43 488.65C632.96 483.35 671.47 466.75 702.3 439.81C711.43 431.84 721.52 422.62 728.26 412.5ZM485.43 448.5C479.76 440.85 468.64 437.15 459.57 435.68C439.92 432.49 420.1 436.47 400.5 438.21C394.17 438.78 387.85 439.08 381.5 439.3C378.81 439.4 375.31 438.8 373.09 440.57C367.26 445.18 361.47 460.47 358.93 467.46C350.03 492 353.03 518.65 361.67 542.76C364.66 551.12 368.74 560.9 374.5 567.74C387.65 556.15 400.02 539.83 409.73 525.25C416.78 514.67 423.18 503.57 431.04 493.56C446.12 474.34 464.84 461.15 485.43 448.5ZM853.49 455.5C846.68 450.89 836.73 453.7 829.25 455.65C810.45 460.54 791.52 468.93 774.12 477.5C781.27 478.04 791.68 473.37 798.82 471.41C817.11 466.38 835.18 460.49 853.49 455.5ZM849.5 473.18C845.78 477.74 848.06 486.11 845.94 491.5C847.79 492.66 849.65 493.82 851.5 494.97C850.83 487.71 850.17 480.45 849.5 473.18ZM839.5 476C837.81 476.83 836.12 477.67 834.42 478.5C834.05 484.97 836.79 489.64 843.5 490.51C839.93 483.75 840.7 483.19 839.5 476ZM682.99 477.5C678.84 477.85 663.89 487.58 658.53 490.07C641.99 497.77 624.43 503.56 606.47 506.81C592.24 509.37 577.94 511.01 563.5 511.74C546.47 512.61 529.39 512.44 512.5 515.1C470.87 521.66 429.48 540.82 400.44 571.93C390.33 582.76 379.72 595.66 374.5 609.72C377.24 608.41 379.31 606.1 381.7 604.16C386.87 599.94 392.09 595.8 397.63 592.08C415.77 579.89 436.36 571.33 457.56 566.23C491.74 558.02 526.92 560.15 561.44 554.69C610.36 546.96 655.67 518.7 682.99 477.5ZM534.42 578.5C522.96 577.99 510.92 579.67 499.5 580.79C481.26 582.58 463.07 585.31 445.64 591.2C406.45 604.44 375.01 632.27 358.97 670.48C353.16 684.31 347.08 708.82 349.5 723.57C356.23 713.28 361.32 702.09 368.53 692.05C385.24 668.79 407.01 649.89 431.1 634.59C452.9 620.74 476.39 609.58 499.36 597.84C507.5 593.68 515.62 589.56 523.56 585.01C527.24 582.9 531.2 581.26 534.42 578.5ZM542.5 597.68C531.71 603.62 520.92 609.56 510.13 615.5C508.86 642.79 515.37 668.93 525.45 694.08C528.63 702.02 534.01 715.58 539.5 721.85C542.31 710.44 544.52 699.2 548.56 688.1C554.4 672.08 563.5 657.34 573.29 643.5C568.16 638.12 562.11 634 557.55 627.93C550.51 618.55 547.43 608.05 542.5 597.68ZM488.5 626.37C476.62 631.16 465.28 638.35 454.08 644.58C451.2 646.18 443.33 649.56 441.63 652.1C440.17 654.28 440.14 657.93 439.74 660.46C438.64 667.47 437.94 674.41 437.73 681.5C436.76 714.39 448.13 745.08 464.36 773.18C479.26 799 499.17 821.47 522.15 840.37C551.5 864.52 585.42 882.41 614.5 907C645.32 933.05 667.77 965.57 685.52 1001.5C687.08 994.56 685.8 986.55 684.77 979.51C682.42 963.35 677.73 947.97 671.58 932.88C657.33 897.91 633.77 866.79 608.09 839.39C590.38 820.49 571.35 802.6 555.07 782.4C528.21 749.08 506.4 711.91 495.25 670.33C492.81 661.23 491.19 651.85 490.08 642.5C489.45 637.17 489.59 631.59 488.5 626.37ZM592.5 653.09C576.19 673.9 564.31 699.38 559.69 725.42C558.63 731.37 556.04 743.68 557.28 749.33C558.05 752.8 564.2 759 566.54 761.96C575.05 772.69 584.02 783.11 593.55 792.97C621.47 821.85 649.27 850.7 670.4 885.11C682.64 905.03 692.75 927.17 698.57 949.84C700.48 957.29 701.9 964.9 702.99 972.5C703.64 977.01 703.42 982.43 705.5 986.38C719.57 952.3 731.66 917.26 736.22 880.51C738.39 862.96 739.46 844.15 733.39 827.18C730.13 818.06 721.71 810.22 715.37 803.15C701.19 787.35 686.13 772.36 671.93 756.57C654.32 737 637.87 715.08 625.94 691.54C619.72 679.25 616.34 666.13 611.17 653.5C607.95 653.57 604.75 654.18 601.5 654.04C598.44 653.91 595.54 653.14 592.5 653.09ZM416.5 671.49C412.63 673.14 409.46 677.01 406.53 680.02C399.27 687.51 392.72 695.72 386.86 704.33C362.1 740.74 355.99 781.26 377.64 820.84C386.16 836.43 398.53 848.94 411.5 860.81C412.78 855.49 410.99 849.12 411.11 843.5C411.3 834.5 412.99 825.44 415.37 816.77C418.16 806.59 422.5 796.59 428.15 787.67C431.32 782.67 436.37 777.77 438.66 772.5C426.79 749.38 418.51 724.48 416.33 698.48C415.57 689.45 416.74 680.48 416.5 671.49ZM695.5 752.47C701.9 760.55 710.24 767.66 717.47 775.04C727.64 785.42 736.72 796.53 745.5 808.07C748.38 804.22 750.04 799.35 752.79 795.28C757.47 788.36 763.58 782.91 770.64 778.5C767.68 775.28 755.56 773.48 750.6 771.86C739.32 768.18 728.02 764.76 716.91 760.55C710.04 757.96 702.64 753.73 695.5 752.47ZM451.5 794.33C444.37 802.21 440.51 814.21 437.65 824.24C435.5 831.81 434.28 839.63 434.19 847.5C434.07 858.13 436.19 869.34 442.22 878.29C449.3 888.81 460.38 895.53 471.61 900.86C489.22 909.24 508.52 914.72 527.49 919.08C534.5 920.69 541.46 922.35 548.4 924.23C558.82 927.04 569.09 929.91 579.37 933.21C591.93 937.25 604.02 942.64 615.68 948.8C620.57 951.38 628.29 957.9 633.25 958.5C602.58 916.31 554.38 893.58 514.17 862.35C499.46 850.93 485.6 838.13 473.62 823.85C468.75 818.04 464.06 811.99 459.63 805.84C456.9 802.04 454.66 797.78 451.5 794.33Z" fill="#f4f9fb" fill-rule="evenodd" stroke="#0A146F" stroke-width="0.25" stroke-linejoin="round"/></g>
</svg>